<?xml version="1.0" standalone="yes"?>
<svg xmlns="http://www.w3.org/2000/svg" width="298" height="120">
<path style="fill:#441147; stroke:none;" d="M0 0L0 120L298 120L298 0L0 0z"/>
<path style="fill:#956f79; stroke:none;" d="M198 23L198 24L211 25C207.108 21.3528 202.942 22.0831 198 23z"/>
<path style="fill:#b7a4b9; stroke:none;" d="M201 23L201 24L210 25L201 23z"/>
<path style="fill:#956f79; stroke:none;" d="M33 24L33 25L38 25L33 24M194 24L194 25L197 25L194 24z"/>
<path style="fill:#b7a4b9; stroke:none;" d="M197 24L197 25L200 25L197 24z"/>
<path style="fill:#efebf0; stroke:none;" d="M173 31L190 30C192.06 38.9648 184.568 63.5338 193 69L193 30L201 30C202.798 29.9999 216.001 29.513 209.663 25.3133C204.123 21.6419 176.352 25.8293 173 31z"/>
<path style="fill:#956f79; stroke:none;" d="M24 25L24 26L27 26L24 25z"/>
<path style="fill:#b7a4b9; stroke:none;" d="M27 25L27 26L33 26L27 25z"/>
<path style="fill:#efebf0; stroke:none;" d="M10 37C19.8357 34.7506 28.2756 28.2695 39 30.3403C42.4567 31.0077 48.7138 33.7256 48.6543 38.0108C48.5628 44.6099 34.2158 49.2284 29.3179 45.9722C26.4521 44.067 26.7256 39.0379 26 36L25 36L25 62L26 62L28 48C31.3053 48.796 34.7035 49.0367 38 49.8472C45.2846 51.6383 53.4015 59.6284 42.9954 64.1458C32.7814 68.5799 21.5266 61.6121 12 66L12 67C20.9329 71.4832 34.5463 72.5927 43.9992 68.9715C55.3297 64.6309 51.8863 54.2001 45 48C53.1511 43.679 56.1817 33.5025 46.9846 28.0895C36.8894 22.1479 14.2028 24.9006 10 37z"/>
<path style="fill:#b7a4b9; stroke:none;" d="M38 25L38 26L42 26L38 25z"/>
<path style="fill:#956f79; stroke:none;" d="M42.6667 25.3333L43.3333 25.6667L42.6667 25.3333M186 25L186 26L190 26L186 25z"/>
<path style="fill:#b7a4b9; stroke:none;" d="M190 25L190 26L194 26L190 25M211 25L212 26L211 25z"/>
<path style="fill:#956f79; stroke:none;" d="M212.333 25.6667L212.667 26.3333L212.333 25.6667M18 27L18 28L22 27L18 27z"/>
<path style="fill:#b7a4b9; stroke:none;" d="M22 26L22 27L26 27L22 26M43.6667 26.3333L44.3333 26.6667L43.6667 26.3333z"/>
<path style="fill:#956f79; stroke:none;" d="M45 26L45 27L48 28L45 26M172 32L173 32L172 29L184 27C179.544 25.4019 171.91 26.397 172 32z"/>
<path style="fill:#b7a4b9; stroke:none;" d="M184 26L184 27L189 27L184 26M20 27L21 28L20 27M46 27L47 28L46 27M180.667 27.3333L181.333 27.6667L180.667 27.3333M212 27L211 30L212 27z"/>
<path style="fill:#956f79; stroke:none;" d="M16 28L17 29L16 28z"/>
<path style="fill:#b7a4b9; stroke:none;" d="M17 28L18 29L17 28M48 28L52 32L48 28z"/>
<path style="fill:#956f79; stroke:none;" d="M49 28L50 29L49 28z"/>
<path style="fill:#b7a4b9; stroke:none;" d="M173 28L174 29L173 28z"/>
<path style="fill:#956f79; stroke:none;" d="M14 29L15 30L14 29z"/>
<path style="fill:#b7a4b9; stroke:none;" d="M15 29L16 30L15 29z"/>
<path style="fill:#956f79; stroke:none;" d="M50 29L51 30L50 29z"/>
<path style="fill:#b7a4b9; stroke:none;" d="M172.333 29.6667L172.667 30.3333L172.333 29.6667z"/>
<path style="fill:#956f79; stroke:none;" d="M212 29L213 30L212 29M12 30L11 32L12 30z"/>
<path style="fill:#b7a4b9; stroke:none;" d="M13.6667 30.3333L14.3333 30.6667L13.6667 30.3333M28 30L28 31L41 31L28 30z"/>
<path style="fill:#956f79; stroke:none;" d="M51 30L52 31L51 30z"/>
<path style="fill:#b7a4b9; stroke:none;" d="M189 30L190 38L191 38L189 30M193 30L193 31L209 31L193 30z"/>
<path style="fill:#956f79; stroke:none;" d="M209 30L209 31L212 31L209 30z"/>
<path style="fill:#b7a4b9; stroke:none;" d="M12 31L13 32L12 31M25.6667 31.3333L26.3333 31.6667L25.6667 31.3333z"/>
<path style="fill:#956f79; stroke:none;" d="M27 31L27 32L32 32L27 31M39 31L39 32L42 32L39 31z"/>
<path style="fill:#b7a4b9; stroke:none;" d="M42.6667 31.3333L43.3333 31.6667L42.6667 31.3333M173 31L173 32L186 32L173 31z"/>
<path style="fill:#956f79; stroke:none;" d="M186 31L186 32L190 32L186 31M193 31L193 36L194 36L196 32L193 31z"/>
<path style="fill:#b7a4b9; stroke:none;" d="M11 32L12 33L11 32M21.6667 32.3333L22.3333 32.6667L21.6667 32.3333z"/>
<path style="fill:#956f79; stroke:none;" d="M23.6667 32.3333L24.3333 32.6667L23.6667 32.3333M44 32L45 33L44 32M52 32L53 33L52 32M10 33L9 36L10 36L10 33z"/>
<path style="fill:#b7a4b9; stroke:none;" d="M18 33L19 34L18 33z"/>
<path style="fill:#956f79; stroke:none;" d="M19 33L19 34L22 34L19 33M45 33L48 35L48 34L45 33z"/>
<path style="fill:#b7a4b9; stroke:none;" d="M46 33L47 34L46 33M52 33L53 34L52 33M10 34L11 35L10 34M16 34L13 36L13 37L17 35L16 34z"/>
<path style="fill:#956f79; stroke:none;" d="M17.6667 34.3333L18.3333 34.6667L17.6667 34.3333M53 34L53 41L54 41L53 34M16 35L17 36L16 35M25 35L26 36L25 35z"/>
<path style="fill:#b7a4b9; stroke:none;" d="M48 35L49 36L48 35M9 36L12 38L12 37L9 36z"/>
<path style="fill:#956f79; stroke:none;" d="M14 36L15 37L14 36M24 36L25 37L24 36z"/>
<path style="fill:#b7a4b9; stroke:none;" d="M26 36C27.6964 45.1322 28.2675 46.9989 38 47L38 46L28 46L26 36M49 36L49 39L50 39L49 36M193 36L193 46L194 46L193 36z"/>
<path style="fill:#956f79; stroke:none;" d="M9 37L10 38L9 37M12 37L13 38L12 37z"/>
<path style="fill:#b7a4b9; stroke:none;" d="M24.3333 37.6667L24.6667 38.3333L24.3333 37.6667z"/>
<path style="fill:#956f79; stroke:none;" d="M27 37L28 38L27 37M158 41C164.558 37.7036 172.152 36.3032 176 44C177.785 35.2146 161.432 35.1257 158 41M10.6667 38.3333L11.3333 38.6667L10.6667 38.3333M23 38L23 45L24 45L23 38z"/>
<path style="fill:#f3b63b; stroke:none;" d="M159 47L161 47C163.46 44.0564 172.619 41.1437 171.98 48.1049C171.227 56.2968 159.23 60.8009 158.831 68.9414C158.44 76.9391 175.488 71.787 178 68L164 68C166.757 60.8314 179.623 50.6145 175.592 42.1335C171.896 34.3579 156.405 37.1662 159 47z"/>
<path style="fill:#956f79; stroke:none;" d="M189 38L189 55L190 55L189 38M48 39L49 40L48 39M84 39C87.684 48.6146 86.8658 61.95 85 72L86 72C88.1516 62.9625 88.6375 48.9229 86 40L92 40L91 43L92 43L93 39L84 39M107 40L107 41L115 40L114 69L115 69L117 39L107 40M125 39L129 44L126 40L132 43L133 43L133 39L125 39M145 41L151 40L151 41L149 41L149 42L152 39L145 41M226 39C229.466 48.0456 229.805 63.0196 226 72C231.978 67.7767 229.933 46.5385 228 40L233 42L234 42L235 39L226 39M249 40L252 42L257 40L256 68L257 68L259 39L249 40M267 39L271 44L268 40L274 43L275 43L275 39L267 39M287 39L287 43L288 43L288 40L293 40L293 41L291 41L291 42L295 39L287 39z"/>
<path style="fill:#b7a4b9; stroke:none;" d="M48 40L49 41L48 40M86 40L87 69L88 69C88 61.1539 90.8261 46.3702 86 40z"/>
<path style="fill:#efebf0; stroke:none;" d="M87 40C89.2568 49.479 88.7719 61.4558 87 71L92 71C88.7269 62.0192 88.7878 49.292 91 40L87 40z"/>
<path style="fill:#b7a4b9; stroke:none;" d="M91 40L92 41L91 40M109 40L110 70L111 70C111 61.9571 113.941 46.5214 109 40z"/>
<path style="fill:#efebf0; stroke:none;" d="M110 40C112.182 49.1664 112.182 61.8336 110 71L116 71L114 40L110 40z"/>
<path style="fill:#b7a4b9; stroke:none;" d="M114 40L115 41L114 40M126 40L129 43L126 40z"/>
<path style="fill:#efebf0; stroke:none;" d="M127 40C133.171 51.1287 137 58.1123 137 71L141 71C138.904 62.1972 138.94 42.0526 127 40z"/>
<path style="fill:#b7a4b9; stroke:none;" d="M131.333 40.6667L131.667 41.3333L131.333 40.6667z"/>
<path style="fill:#efebf0; stroke:none;" d="M146 40L144 48L145 48L150 40L146 40z"/>
<path style="fill:#b7a4b9; stroke:none;" d="M150 40L151 41L150 40M228 40L229 41L228 40z"/>
<path style="fill:#efebf0; stroke:none;" d="M229 40L229 71L234 71C230.727 62.0192 230.788 49.292 233 40L229 40z"/>
<path style="fill:#b7a4b9; stroke:none;" d="M233 40L234 41L233 40M251 40L252 43L253 43L251 40z"/>
<path style="fill:#efebf0; stroke:none;" d="M252 40L253 71L258 71C253.656 61.6919 254.146 49.9847 256 40L252 40z"/>
<path style="fill:#b7a4b9; stroke:none;" d="M256 40L257 41L256 40M268 40L272 46L273 46L268 40z"/>
<path style="fill:#efebf0; stroke:none;" d="M269 40C275.488 50.7781 279.536 58.3285 279 71L283 71L283 54L282 54L281 56L274 40L269 40z"/>
<path style="fill:#b7a4b9; stroke:none;" d="M288 40L287 48L288 48L288 43L291 43L291 42L288 40z"/>
<path style="fill:#efebf0; stroke:none;" d="M289 43L292 40L289 43z"/>
<path style="fill:#b7a4b9; stroke:none;" d="M292 40L293 41L292 40z"/>
<path style="fill:#956f79; stroke:none;" d="M46 41L43 43L43 44L46 41z"/>
<path style="fill:#b7a4b9; stroke:none;" d="M47 41L48 42L47 41z"/>
<path style="fill:#956f79; stroke:none;" d="M52 41L51 44L52 41z"/>
<path style="fill:#b7a4b9; stroke:none;" d="M90 41L90 68L91 68L90 41M146 41L147 42L146 41M232 41L232 68L233 68L232 41M46 42L47 43L46 42M51 42L52 43L51 42z"/>
<path style="fill:#956f79; stroke:none;" d="M145 42L146 43L145 42z"/>
<path style="fill:#b7a4b9; stroke:none;" d="M148 42L147 44L148 42z"/>
<path style="fill:#956f79; stroke:none;" d="M157 42L157 45L158 45L157 42z"/>
<path style="fill:#b7a4b9; stroke:none;" d="M255 42L255 66L256 66L255 42M45 43L46 44L45 43z"/>
<path style="fill:#956f79; stroke:none;" d="M57 52L58 52C62.1994 46.6179 66.073 43.8768 73 45C66.5536 40.6223 60.0552 46.1633 57 52z"/>
<path style="fill:#b7a4b9; stroke:none;" d="M132 43L133 44L132 43M145 43L146 44L145 43z"/>
<path style="fill:#956f79; stroke:none;" d="M148 43L149 44L148 43M163 43L163 44L169 44L163 43M201 65L202 65C201.178 62.4 200.157 59.7779 200.422 57C202.595 34.2532 233.724 48.8867 221.349 65.956C219.632 68.3241 217.527 69.6774 215 71C233.924 73.5228 222.286 26.8659 203.39 47.2137C201.433 49.3213 199.974 52.1835 199.394 55C198.661 58.5664 199.63 61.7536 201 65M252 43L252 67L253 67L252 43z"/>
<path style="fill:#b7a4b9; stroke:none;" d="M274 43L275 44L274 43z"/>
<path style="fill:#efebf0; stroke:none;" d="M288.333 43.6667L288.667 44.3333L288.333 43.6667z"/>
<path style="fill:#956f79; stroke:none;" d="M290 43L291 44L290 43M41 44L42 45L41 44z"/>
<path style="fill:#b7a4b9; stroke:none;" d="M42.6667 44.3333L43.3333 44.6667L42.6667 44.3333M50 44L48 47L50 44z"/>
<path style="fill:#f3b63b; stroke:none;" d="M66.0008 44.6682C51.5342 48.7934 55.9765 75.5028 70.9961 71.1057C85.2931 66.9202 81.0841 40.3672 66.0008 44.6682z"/>
<path style="fill:#b7a4b9; stroke:none;" d="M129 44L131 46L129 44z"/>
<path style="fill:#956f79; stroke:none;" d="M133 44L136 50L137 50L133 44M144 44L143 47L144 44M147 44L146 47L147 44M162 44L163 45L162 44M170 44L171 45L170 44z"/>
<path style="fill:#f3b63b; stroke:none;" d="M209.001 44.7431C194.306 50.3086 200.729 76.6977 215.996 70.848C229.814 65.5536 224.039 39.0476 209.001 44.7431z"/>
<path style="fill:#956f79; stroke:none;" d="M275 44L277 49L278 49L275 44M286 44L287 45L286 44M289.333 44.6667L289.667 45.3333L289.333 44.6667z"/>
<path style="fill:#b7a4b9; stroke:none;" d="M23 45L23 51L24 51L23 45z"/>
<path style="fill:#956f79; stroke:none;" d="M28 45L29 46L28 45M35 45L35 46L39 46L35 45z"/>
<path style="fill:#b7a4b9; stroke:none;" d="M39.6667 45.3333L40.3333 45.6667L39.6667 45.3333z"/>
<path style="fill:#956f79; stroke:none;" d="M50 45L51 46L50 45z"/>
<path style="fill:#b7a4b9; stroke:none;" d="M73 45L74 46L73 45z"/>
<path style="fill:#956f79; stroke:none;" d="M74 45L75 46L74 45M129 45L130 46L129 45z"/>
<path style="fill:#b7a4b9; stroke:none;" d="M133 45L134 46L133 45M146 45L147 46L146 45z"/>
<path style="fill:#956f79; stroke:none;" d="M161 45L162 46L161 45M171 45L172 49L173 49L171 45z"/>
<path style="fill:#b7a4b9; stroke:none;" d="M176 45L177 46L176 45M229 45L229 65L230 65L229 45z"/>
<path style="fill:#956f79; stroke:none;" d="M271 45L272 46L271 45z"/>
<path style="fill:#b7a4b9; stroke:none;" d="M275 45L276 46L275 45z"/>
<path style="fill:#efebf0; stroke:none;" d="M287 45L288 46L287 45z"/>
<path style="fill:#956f79; stroke:none;" d="M49 46L50 47L49 46M75 46L76 47L75 46M130 46L132 51L133 51L130 46z"/>
<path style="fill:#b7a4b9; stroke:none;" d="M144 46L145 47L144 46z"/>
<path style="fill:#956f79; stroke:none;" d="M158 46L161 48L161 47L158 46M176 46L176 49L177 49L176 46M272 46L274 49L272 46M285 46L284 49L285 46z"/>
<path style="fill:#efebf0; stroke:none;" d="M286 46L285 50L286 50L286 46z"/>
<path style="fill:#956f79; stroke:none;" d="M288.333 46.6667L288.667 47.3333L288.333 46.6667M22.3333 47.6667L22.6667 48.3333L22.3333 47.6667z"/>
<path style="fill:#b7a4b9; stroke:none;" d="M46 47L51 53L46 47z"/>
<path style="fill:#956f79; stroke:none;" d="M47 47L48 48L47 47M76 47L77 48L76 47z"/>
<path style="fill:#b7a4b9; stroke:none;" d="M131 47L132 48L131 47M134 47L135 48L134 47M143 47L142 53L146 47L143 47M273 47L274 48L273 47M276 47L277 48L276 47M28 48L27 59L28 59L30 49L28 48z"/>
<path style="fill:#956f79; stroke:none;" d="M46 48L47 49L46 48M68 48C66.355 51.6204 64.9983 53.3501 61 54L64 62L65 62L62 55L68 50L69 50L75 55L72 62L73 62L76 54L68 48M77 48L78 49L77 48M142 48L143 49L142 48M145 48L146 49L145 48z"/>
<path style="fill:#b7a4b9; stroke:none;" d="M203 48L204 49L203 48z"/>
<path style="fill:#956f79; stroke:none;" d="M212 48L204 55L207 66L210 65L210 64L206 55L212 50L213 50L219 55L216 64L211 63L211 64L218 66L221 55L212 48z"/>
<path style="fill:#b7a4b9; stroke:none;" d="M285 48L286 49L285 48z"/>
<path style="fill:#956f79; stroke:none;" d="M287 48L288 49L287 48M28 49L28 50L34 50L28 49z"/>
<path style="fill:#b7a4b9; stroke:none;" d="M34 49L34 50L37 50L34 49z"/>
<path style="fill:#956f79; stroke:none;" d="M47 49L48 50L47 49z"/>
<path style="fill:#b7a4b9; stroke:none;" d="M67 49L68 50L67 49z"/>
<path style="fill:#956f79; stroke:none;" d="M78.3333 49.6667L78.6667 50.3333L78.3333 49.6667z"/>
<path style="fill:#b7a4b9; stroke:none;" d="M132 49L133 50L132 49M135 49L136 50L135 49z"/>
<path style="fill:#956f79; stroke:none;" d="M171.333 49.6667L171.667 50.3333L171.333 49.6667M175.333 49.6667L175.667 50.3333L175.333 49.6667z"/>
<path style="fill:#b7a4b9; stroke:none;" d="M274 49L275 50L274 49M277 49L278 50L277 49M284 49L283 55L284 49z"/>
<path style="fill:#956f79; stroke:none;" d="M286.333 49.6667L286.667 50.3333L286.333 49.6667M35 50L35 51L39 51L35 50z"/>
<path style="fill:#b7a4b9; stroke:none;" d="M39 50L39 51L43 52L43 51L39 50z"/>
<path style="fill:#956f79; stroke:none;" d="M49 50L50 51L49 50z"/>
<path style="fill:#441147; stroke:none;" d="M68 50L62 55L64 65L73 65L75 55L68 50z"/>
<path style="fill:#b7a4b9; stroke:none;" d="M136.333 50.6667L136.667 51.3333L136.333 50.6667z"/>
<path style="fill:#956f79; stroke:none;" d="M141 50L142 51L141 50M144 50L145 51L144 50z"/>
<path style="fill:#441147; stroke:none;" d="M212 50L206 55L208 65L216 64L219 55L212 50z"/>
<path style="fill:#956f79; stroke:none;" d="M274 50L275 51L274 50M278 50L282 55L278 50M283 50L284 51L283 50M23 51L23 61L24 61L23 51M40.6667 51.3333L41.3333 51.6667L40.6667 51.3333M50 51L51 52L50 51M79.3333 51.6667L79.6667 52.3333L79.3333 51.6667z"/>
<path style="fill:#b7a4b9; stroke:none;" d="M133 51L134 52L133 51z"/>
<path style="fill:#956f79; stroke:none;" d="M137 51L138 55L140 55L141 52L137 51M143.333 51.6667L143.667 52.3333L143.333 51.6667M170 51L171 52L170 51M174 51L175 52L174 51z"/>
<path style="fill:#b7a4b9; stroke:none;" d="M275 51L277 56L278 56L275 51M278 51L279 52L278 51z"/>
<path style="fill:#956f79; stroke:none;" d="M43 52L44 53L43 52z"/>
<path style="fill:#b7a4b9; stroke:none;" d="M44 52L45 53L44 52z"/>
<path style="fill:#956f79; stroke:none;" d="M51.3333 52.6667L51.6667 53.3333L51.3333 52.6667M133 52L134 53L133 52z"/>
<path style="fill:#efebf0; stroke:none;" d="M141.333 52.6667L141.667 53.3333L141.333 52.6667z"/>
<path style="fill:#956f79; stroke:none;" d="M275 52L276 53L275 52M282 52L283 53L282 52M285 52L286 53L285 52M45 53L48 56L45 53z"/>
<path style="fill:#b7a4b9; stroke:none;" d="M46 53L47 54L46 53z"/>
<path style="fill:#956f79; stroke:none;" d="M56 53L56 62L57 62L56 53M80 53L80 57L81 57L80 53z"/>
<path style="fill:#b7a4b9; stroke:none;" d="M134 53L136 55L134 53M137 53L138 54L137 53M140 53L138 55L138 56L140 59L141 59L140 53z"/>
<path style="fill:#956f79; stroke:none;" d="M142.333 53.6667L142.667 54.3333L142.333 53.6667M169 53L170 54L169 53M173 53L174 54L173 53z"/>
<path style="fill:#b7a4b9; stroke:none;" d="M279 53L280 54L279 53z"/>
<path style="fill:#956f79; stroke:none;" d="M284.333 53.6667L284.667 54.3333L284.333 53.6667z"/>
<path style="fill:#b7a4b9; stroke:none;" d="M47 54L48 55L47 54M51.3333 54.6667L51.6667 55.3333L51.3333 54.6667z"/>
<path style="fill:#956f79; stroke:none;" d="M134 54L135 55L134 54M168 54L169 55L168 54M172.333 54.6667L172.667 55.3333L172.333 54.6667M276 54L277 55L276 54z"/>
<path style="fill:#b7a4b9; stroke:none;" d="M280 54L281 55L280 54z"/>
<path style="fill:#956f79; stroke:none;" d="M52 55L52 62L53 62L52 55z"/>
<path style="fill:#b7a4b9; stroke:none;" d="M60 55L61 56L60 55M76 55L77 56L76 55z"/>
<path style="fill:#956f79; stroke:none;" d="M135.333 55.6667L135.667 56.3333L135.333 55.6667M141 55L142 56L141 55M167 55L166 58L167 58L167 55z"/>
<path style="fill:#b7a4b9; stroke:none;" d="M189 55L189 67L190 67L189 55M281 55L282 56L281 55z"/>
<path style="fill:#956f79; stroke:none;" d="M283.333 55.6667L283.667 56.3333L283.333 55.6667z"/>
<path style="fill:#b7a4b9; stroke:none;" d="M48 56L49 57L48 56M136.333 56.6667L136.667 57.3333L136.333 56.6667M167 56L168 57L167 56z"/>
<path style="fill:#956f79; stroke:none;" d="M171 56L172 57L171 56M277 56L278 57L277 56M48 57L48 60L49 60L48 57z"/>
<path style="fill:#b7a4b9; stroke:none;" d="M80 57L81 58L80 57z"/>
<path style="fill:#956f79; stroke:none;" d="M170 57L171 58L170 57z"/>
<path style="fill:#b7a4b9; stroke:none;" d="M278 57L279 58L278 57M282 57L283 58L282 57z"/>
<path style="fill:#956f79; stroke:none;" d="M80 58L80 63L81 63L80 58M136 58L134 72C138.025 69.1564 137.783 62.2483 136 58M165 58L166 59L165 58M169.333 58.6667L169.667 59.3333L169.333 58.6667M278 58L276 72C280.025 69.1563 279.783 62.2483 278 58M282 58L282 69L283 69L282 58z"/>
<path style="fill:#b7a4b9; stroke:none;" d="M24 59L25 63L26 63L27 60L26 60L26 62L25 62L24 59z"/>
<path style="fill:#956f79; stroke:none;" d="M27.3333 59.6667L27.6667 60.3333L27.3333 59.6667M140 59L140 66L141 66L140 59M164 59L165 60L164 59z"/>
<path style="fill:#b7a4b9; stroke:none;" d="M207 59L208 60L207 59M48 60L49 61L48 60z"/>
<path style="fill:#956f79; stroke:none;" d="M163 60L164 61L163 60M168 60L169 61L168 60M188 60L188 65L189 65L188 60z"/>
<path style="fill:#b7a4b9; stroke:none;" d="M200 60L201 61L200 60z"/>
<path style="fill:#956f79; stroke:none;" d="M46 61L43 63L43 64L46 61z"/>
<path style="fill:#b7a4b9; stroke:none;" d="M47 61L48 62L47 61M51 61L46 69C48.893 66.8949 51.7619 64.789 51 61z"/>
<path style="fill:#956f79; stroke:none;" d="M162 61L161 64L162 61M167 61L166 64L167 61z"/>
<path style="fill:#b7a4b9; stroke:none;" d="M279 61L279 66L280 66L279 61z"/>
<path style="fill:#956f79; stroke:none;" d="M24 62L25 63L24 62M26 62L27 63L26 62z"/>
<path style="fill:#b7a4b9; stroke:none;" d="M46 62L47 63L46 62M63 62L64 63L63 62M193 62L193 67L194 67L193 62z"/>
<path style="fill:#956f79; stroke:none;" d="M15 63L15 64L18 64L15 63M25 63L26 64L25 63z"/>
<path style="fill:#b7a4b9; stroke:none;" d="M45 63L46 64L45 63z"/>
<path style="fill:#956f79; stroke:none;" d="M57.3333 63.6667L57.6667 64.3333L57.3333 63.6667M63 63L65 66L63 63M67 63L67 64L70 64L67 63M79.3333 63.6667L79.6667 64.3333L79.3333 63.6667z"/>
<path style="fill:#b7a4b9; stroke:none;" d="M217 63L218 64L217 63z"/>
<path style="fill:#956f79; stroke:none;" d="M13 64L14 65L13 64z"/>
<path style="fill:#b7a4b9; stroke:none;" d="M14 64L15 65L14 64M18 64L18 65L21 65L18 64z"/>
<path style="fill:#956f79; stroke:none;" d="M21 64L21 65L24 65L21 64M39 64L39 65L42 65L39 64z"/>
<path style="fill:#b7a4b9; stroke:none;" d="M42 64L43 65L42 64z"/>
<path style="fill:#956f79; stroke:none;" d="M51 64L52 65L51 64M65.6667 64.3333L66.3333 64.6667L65.6667 64.3333M70.6667 64.3333L71.3333 64.6667L70.6667 64.3333M73 64L72 66L74 66L73 64M91 64L92 65L91 64M160 64L161 65L160 64M165 64L166 65L165 64z"/>
<path style="fill:#b7a4b9; stroke:none;" d="M210 64L211 65L210 64z"/>
<path style="fill:#956f79; stroke:none;" d="M11 65L11 68L12 68L11 65z"/>
<path style="fill:#b7a4b9; stroke:none;" d="M12 65L13 66L12 65M25 65L25 66L39 66L25 65z"/>
<path style="fill:#956f79; stroke:none;" d="M50 65L51 66L50 65M58 65L60 68L58 65M78 65L77 68L78 65M159 65L158 68L159 68L159 65M164 65C165.064 69.964 173.795 68 178 68L178 67L164 65M49 66L50 67L49 66z"/>
<path style="fill:#b7a4b9; stroke:none;" d="M59 66L60 67L59 66M77 66L78 67L77 66z"/>
<path style="fill:#956f79; stroke:none;" d="M91 66L95 70L95 69L91 66M102 66L102 72L103 72L102 66M125 66L126 67L125 66z"/>
<path style="fill:#b7a4b9; stroke:none;" d="M140 66L140 70L141 70L140 66M159 66L160 67L159 66z"/>
<path style="fill:#956f79; stroke:none;" d="M202 66L203 67L202 66M243 66L243 68L245 68L245 66L243 66M267 66L263 69L263 70L268 69L267 72L268 72L269 66L267 66z"/>
<path style="fill:#b7a4b9; stroke:none;" d="M12 67L13 68L12 67z"/>
<path style="fill:#956f79; stroke:none;" d="M48 67L49 68L48 67z"/>
<path style="fill:#b7a4b9; stroke:none;" d="M125 67L125 71L115 69C115 72.102 111.633 71 109 71L109 72C113.212 72 127.376 74.2493 125 67z"/>
<path style="fill:#956f79; stroke:none;" d="M189 67L190 68L189 67M193 67L190 69L190 70L193 71L193 67M203 67L204 68L203 67M233 67L238 70L238 69L233 67z"/>
<path style="fill:#b7a4b9; stroke:none;" d="M252 67L251 72L267 72L267 71L257 69L253 71L252 67z"/>
<path style="fill:#956f79; stroke:none;" d="M13 68L13 69L22 71L22 70L13 68z"/>
<path style="fill:#b7a4b9; stroke:none;" d="M14 68L15 69L14 68z"/>
<path style="fill:#956f79; stroke:none;" d="M47 68L48 69L47 68M60 68L61 69L60 68M76 68L77 69L76 68z"/>
<path style="fill:#b7a4b9; stroke:none;" d="M101 68L86 70L102 72L102 71L101 68z"/>
<path style="fill:#956f79; stroke:none;" d="M124 68L125 69L124 68M126.333 68.6667L126.667 69.3333L126.333 68.6667M157 68L160 73L160 72L157 68M178.333 68.6667L178.667 69.3333L178.333 68.6667z"/>
<path style="fill:#b7a4b9; stroke:none;" d="M190 68L191 69L190 68z"/>
<path style="fill:#956f79; stroke:none;" d="M204 68L205 69L204 68z"/>
<path style="fill:#b7a4b9; stroke:none;" d="M228 70C231.587 74.1045 242.91 73.1981 245 68L228 70M256 68L257 69L256 68M17.6667 69.3333L18.3333 69.6667L17.6667 69.3333M42.6667 69.3333L43.3333 69.6667L42.6667 69.3333z"/>
<path style="fill:#956f79; stroke:none;" d="M44.6667 69.3333L45.3333 69.6667L44.6667 69.3333M61 69L62 70L61 69z"/>
<path style="fill:#b7a4b9; stroke:none;" d="M74 69L75 70L74 69z"/>
<path style="fill:#956f79; stroke:none;" d="M75 69L76 70L75 69z"/>
<path style="fill:#b7a4b9; stroke:none;" d="M91 69L92 70L91 69z"/>
<path style="fill:#956f79; stroke:none;" d="M98.6667 69.3333L99.3333 69.6667L98.6667 69.3333z"/>
<path style="fill:#efebf0; stroke:none;" d="M101 69L100 71L102 71L101 69z"/>
<path style="fill:#956f79; stroke:none;" d="M116 69L116 70L119 70L116 69M121 69L121 70L124 70L121 69z"/>
<path style="fill:#b7a4b9; stroke:none;" d="M191.667 69.3333L192.333 69.6667L191.667 69.3333z"/>
<path style="fill:#956f79; stroke:none;" d="M205 69L206 70L205 69z"/>
<path style="fill:#b7a4b9; stroke:none;" d="M233 69L234 70L233 69z"/>
<path style="fill:#956f79; stroke:none;" d="M240.667 69.3333L241.333 69.6667L240.667 69.3333M251 69L250 72L251 69M258 69L258 70L261 70L258 69z"/>
<path style="fill:#b7a4b9; stroke:none;" d="M266.667 69.3333L267.333 69.6667L266.667 69.3333M282 69L283 70L282 69M22 70L22 71L27 71L22 70M37 70L37 71L41 71L37 70z"/>
<path style="fill:#956f79; stroke:none;" d="M41 70L41 71L44 71L41 70M62.6667 70.3333L63.3333 70.6667L62.6667 70.3333M73.6667 70.3333L74.3333 70.6667L73.6667 70.3333M108 70L108 72L110 70L108 70z"/>
<path style="fill:#efebf0; stroke:none;" d="M123.667 70.3333L124.333 70.6667L123.667 70.3333z"/>
<path style="fill:#b7a4b9; stroke:none;" d="M136 70L142 72L142 71L136 70z"/>
<path style="fill:#956f79; stroke:none;" d="M141 70L144 72L141 70M175 72L178 70L175 72M206.667 70.3333L207.333 70.6667L206.667 70.3333z"/>
<path style="fill:#efebf0; stroke:none;" d="M242 70L243 71L242 70z"/>
<path style="fill:#956f79; stroke:none;" d="M244.333 70.6667L244.667 71.3333L244.333 70.6667z"/>
<path style="fill:#efebf0; stroke:none;" d="M265.667 70.3333L266.333 70.6667L265.667 70.3333z"/>
<path style="fill:#b7a4b9; stroke:none;" d="M278 70L284 72L284 71L278 70z"/>
<path style="fill:#956f79; stroke:none;" d="M283 70L286 72L283 70M24 71L24 72L29 72L24 71z"/>
<path style="fill:#b7a4b9; stroke:none;" d="M29 71L29 72L35 72L29 71z"/>
<path style="fill:#956f79; stroke:none;" d="M35 71L35 72L39 72L35 71M64.6667 71.3333L65.3333 71.6667L64.6667 71.3333z"/>
<path style="fill:#b7a4b9; stroke:none;" d="M66 71L67 72L66 71M70 71L71 72L70 71z"/>
<path style="fill:#956f79; stroke:none;" d="M71.6667 71.3333L72.3333 71.6667L71.6667 71.3333M125 71L126 72L125 71z"/>
<path style="fill:#b7a4b9; stroke:none;" d="M158 71L159 72L158 71M174 71L175 72L174 71z"/>
<path style="fill:#956f79; stroke:none;" d="M208.667 71.3333L209.333 71.6667L208.667 71.3333z"/>
<path style="fill:#b7a4b9; stroke:none;" d="M214 71L215 72L214 71z"/>
<path style="fill:#956f79; stroke:none;" d="M68 72L69 73L68 72M94 72L94 73L101 73L94 72M117 72L117 73L124 73L117 72M169 72L169 73L173 73L169 72M212 72L213 73L212 72M236 72L236 73L243 73L236 72M260 72L260 73L266 73L260 72M161 73L161 74L168 74L161 73M152 79L151 81L152 79z"/>
<path style="fill:#b7a4b9; stroke:none;" d="M153 79L152 81L153 79z"/>
<path style="fill:#956f79; stroke:none;" d="M154 79L154 80C157.462 82.6445 158.712 84.6345 158 89L159 89C160.304 84.0431 158.545 81.1907 154 79z"/>
<path style="fill:#efebf0; stroke:none;" d="M153.667 80.3333L154.333 80.6667L153.667 80.3333z"/>
<path style="fill:#b7a4b9; stroke:none;" d="M154 81L157 83L156 80L154 81z"/>
<path style="fill:#956f79; stroke:none;" d="M36 84L37 84L38 82L39 86L40 86L38 81L36 84M52 81L50 87L51 87L52 82L53 82L55 87L56 87L57 81L52 81M69 85L70 85L72 83L69 90L70 90L74 82L75 85C75.1117 80.4777 70.6183 82.3914 69 85M97 96L104 92L97 95L97 82L101 82C93.8577 79.6595 95.8597 92.1423 97 96M106 87L107 87L109 86L110 86L109 83C116.447 81.4677 119.28 86.2984 117 93L116 93L117 89L116 89L115 95C126.168 88.1439 112.198 74.1407 106 87M122 81L124 93L125 93C125 88.614 126.033 83.6146 122 81M132 81C130.919 83.9567 129.292 92.9914 132.333 95.2778C134.61 96.9895 139.902 95.1917 136 93L132 95L132 82L133 82L133 93L134 93L132 81M139 81L142 87L139 82L146 88L149 84L150 84L149 81L146 82L146 87L139 81M153 81L154 82L153 81M162 84L163 84L164 84C163.292 80.4579 172.704 81.1855 172 84L174 81C169.614 81 164.615 79.9671 162 84M178 81L178 82L186 84L178 81M190 81L193 84L190 81M199 81L199 83L201 81L199 81M206 81L209 86L206 81M216 81L210 85L210 86L216 81M223 81L223 90L224 90L224 83L229 86L223 81M233 81L232 89L229 87L233 90L233 82L234 82L234 93L235 93L233 81M239 81L239 82L244 82L244 83L241 83L241 84L245 84L245 81L239 81M248 84C247.292 80.4579 256.704 81.1855 256 84L257 84L258 84L258 82C255.7 81.1591 242.366 80.836 248 84z"/>
<path style="fill:#b7a4b9; stroke:none;" d="M37 82L38 83L37 82M52 82L53 83L52 82M73 82L77 90L73 82z"/>
<path style="fill:#956f79; stroke:none;" d="M88 82L86 88L87 88L90 83L89 86L90 86L91 83L88 82z"/>
<path style="fill:#b7a4b9; stroke:none;" d="M97 82L97 83L102 84L98 89L102 88L97 94C105.382 95.6355 105.264 82.6442 97 82z"/>
<path style="fill:#956f79; stroke:none;" d="M102 82L103 83L102 82z"/>
<path style="fill:#b7a4b9; stroke:none;" d="M109 83L109 84L117 85C114.906 81.7707 112.527 81.9949 109 83M132 82L132 95L137 95L137 94L133 93L132 82M139 82L143 94L145 94C144.934 88.4055 143.431 85.4534 139 82M148 82L147 84L149 84L148 82z"/>
<path style="fill:#956f79; stroke:none;" d="M155 82L156 83L155 82z"/>
<path style="fill:#efebf0; stroke:none;" d="M157.333 82.6667L157.667 83.3333L157.333 82.6667z"/>
<path style="fill:#b7a4b9; stroke:none;" d="M163 82L163 83L167 84L167 94L169 94L169 84L173 83L163 82z"/>
<path style="fill:#956f79; stroke:none;" d="M176 82L175 84L176 82z"/>
<path style="fill:#b7a4b9; stroke:none;" d="M186 90C174.914 96.3074 173.949 82.101 186 85C184.967 83.9455 184.376 82.9639 182.862 82.5625C167.349 78.45 177.822 105.584 186 90M190 82C190 87.3256 188.457 93.9081 195 95L195 93L191 93L190 82M200 82C198.487 87.119 197.529 93.92 204 95L201 93L200 82M207 82L212 89L211 94L212 94L217 84L217 83L213 86L210 86L207 82z"/>
<path style="fill:#956f79; stroke:none;" d="M208 82L209 83L208 82z"/>
<path style="fill:#b7a4b9; stroke:none;" d="M233 82L233 90L224 83L224 84L226 85L223 94L225 94L225 86L231 93L234 92L233 82M239 82C239 87.3256 237.457 93.9081 244 95L244 94C240.645 90.5442 239.412 85.8992 244 83L239 82M247 82L247 83L251 84L251 94L253 94L253 84L257 83L247 82z"/>
<path style="fill:#efebf0; stroke:none;" d="M37 83L38 84L37 83M52.3333 83.6667L52.6667 84.3333L52.3333 83.6667z"/>
<path style="fill:#b7a4b9; stroke:none;" d="M55.6667 83.3333L56.3333 83.6667L55.6667 83.3333M69 86L72 83L69 86M88.6667 83.3333L89.3333 83.6667L88.6667 83.3333z"/>
<path style="fill:#efebf0; stroke:none;" d="M97 83L97 94L98 94L97 83z"/>
<path style="fill:#956f79; stroke:none;" d="M103 83L102 88L103 88L103 83M111 83L111 84L114 84L111 83z"/>
<path style="fill:#b7a4b9; stroke:none;" d="M122 83C122 88.1803 120.733 93.9542 127 95L124 93L124 83L122 83z"/>
<path style="fill:#956f79; stroke:none;" d="M156 83L151 96C154.644 96 159.096 97.2169 160 93L159 93L152 95C154.588 91.1489 157.923 87.7732 156 83z"/>
<path style="fill:#b7a4b9; stroke:none;" d="M158 83L158 88L159 88L158 83z"/>
<path style="fill:#efebf0; stroke:none;" d="M167.667 83.3333L168.333 83.6667L167.667 83.3333z"/>
<path style="fill:#956f79; stroke:none;" d="M179 83L179 84L182 84L179 83M201 83L202 84L201 83M209 83L210 84L209 83M238 83L238 94L239 94L238 83z"/>
<path style="fill:#efebf0; stroke:none;" d="M251.667 83.3333L252.333 83.6667L251.667 83.3333z"/>
<path style="fill:#b7a4b9; stroke:none;" d="M37 84C38.4065 89.7972 40.3535 91.8226 46 89L47 92L53 85L49 90L48 90L47 87L40 90L37 84z"/>
<path style="fill:#956f79; stroke:none;" d="M44 84L45 85L44 84z"/>
<path style="fill:#efebf0; stroke:none;" d="M56.3333 84.6667L56.6667 85.3333L56.3333 84.6667z"/>
<path style="fill:#956f79; stroke:none;" d="M57 84L61 92L62 92L65 91L64 88L61 90L59 89L57 84M61 87L65 86C62.9209 84.3573 62.4194 84.8166 61 87M81 84L78 89L79 89L83 86L81 84z"/>
<path style="fill:#efebf0; stroke:none;" d="M88 84L89 85L88 84z"/>
<path style="fill:#956f79; stroke:none;" d="M98 84L101 87L101 86L98 84z"/>
<path style="fill:#441147; stroke:none;" d="M99 84L99 86L101 86L101 84L99 84z"/>
<path style="fill:#956f79; stroke:none;" d="M101 84L102 85L101 84z"/>
<path style="fill:#b7a4b9; stroke:none;" d="M108 84C104.904 90.7324 108.564 96.0197 116 94L116 93L108 93L108 84z"/>
<path style="fill:#441147; stroke:none;" d="M110.738 85.0471C107.414 87.5668 110.113 94.9088 114.348 91.9529C118.214 89.2546 114.811 81.9599 110.738 85.0471z"/>
<path style="fill:#956f79; stroke:none;" d="M115 84L116 85L115 84z"/>
<path style="fill:#efebf0; stroke:none;" d="M117 84L117 87L118 87L117 84M141 84L142 85L141 84z"/>
<path style="fill:#b7a4b9; stroke:none;" d="M145 84L145 87L146 87L147 84L145 84z"/>
<path style="fill:#956f79; stroke:none;" d="M166 84L166 94L167 94L166 84M169 84L170 85L169 84M177 84L178 85L177 84z"/>
<path style="fill:#441147; stroke:none;" d="M178.502 85.0471C175.075 87.4367 177.451 94.3727 181.697 91.9136C185.646 89.6262 182.766 82.0745 178.502 85.0471z"/>
<path style="fill:#956f79; stroke:none;" d="M183 84L184 91L185 91L183 84M215 84L216 85L215 84z"/>
<path style="fill:#efebf0; stroke:none;" d="M224.667 84.3333L225.333 84.6667L224.667 84.3333z"/>
<path style="fill:#956f79; stroke:none;" d="M250.333 84.6667L250.667 85.3333L250.333 84.6667z"/>
<path style="fill:#b7a4b9; stroke:none;" d="M44.6667 85.3333L45.3333 85.6667L44.6667 85.3333z"/>
<path style="fill:#956f79; stroke:none;" d="M46.3333 85.6667L46.6667 86.3333L46.3333 85.6667z"/>
<path style="fill:#b7a4b9; stroke:none;" d="M63 85L61 90L62 90L63 86L64 86L66 94L68 94L70 87L69 87L68 90L66 90L63 85z"/>
<path style="fill:#956f79; stroke:none;" d="M73 85L74 86L73 85z"/>
<path style="fill:#b7a4b9; stroke:none;" d="M81 85L76 94L77 94L78 94L81 88L87 92L89 85L88 85L86 90L84 90L81 85z"/>
<path style="fill:#956f79; stroke:none;" d="M116.333 85.6667L116.667 86.3333L116.333 85.6667M174 85L175 86L174 85z"/>
<path style="fill:#efebf0; stroke:none;" d="M185 85L185 90L186 90L185 85z"/>
<path style="fill:#956f79; stroke:none;" d="M186 85L186 91L187 91L186 85M214 85L215 86L214 85M37.3333 86.6667L37.6667 87.3333L37.3333 86.6667M43 86L42 89L43 86z"/>
<path style="fill:#efebf0; stroke:none;" d="M44 86L44 88L46 88L46 86L44 86z"/>
<path style="fill:#956f79; stroke:none;" d="M52 86L53 87L52 86z"/>
<path style="fill:#b7a4b9; stroke:none;" d="M56 86L56 88L58 88L58 86L56 86z"/>
<path style="fill:#efebf0; stroke:none;" d="M63.3333 86.6667L63.6667 87.3333L63.3333 86.6667z"/>
<path style="fill:#956f79; stroke:none;" d="M68.3333 86.6667L68.6667 87.3333L68.3333 86.6667z"/>
<path style="fill:#efebf0; stroke:none;" d="M69 86L70 87L69 86M81 86L82 87L81 86z"/>
<path style="fill:#b7a4b9; stroke:none;" d="M118 86L118 90L119 90L118 86z"/>
<path style="fill:#956f79; stroke:none;" d="M176.333 86.6667L176.667 87.3333L176.333 86.6667M225 86L225 88L227 88L225 86M47.3333 87.6667L47.6667 88.3333L47.3333 87.6667M65 87L66 88L65 87M76.3333 87.6667L76.6667 88.3333L76.3333 87.6667M83 87L84 88L83 87M88 87L89 88L88 87M108 87L108 91L109 91L108 87z"/>
<path style="fill:#efebf0; stroke:none;" d="M143.333 87.6667L143.667 88.3333L143.333 87.6667M157.333 87.6667L157.667 88.3333L157.333 87.6667z"/>
<path style="fill:#956f79; stroke:none;" d="M209 87L210 88L209 87z"/>
<path style="fill:#efebf0; stroke:none;" d="M210 87L212 89L212 87L210 87z"/>
<path style="fill:#956f79; stroke:none;" d="M213 87L214 88L213 87M241 87L241 88L244 88L244 89L241 89L241 90L245 89L245 88L241 87M40 88L40 90L42 90L40 88M49 88L50 89L49 88M56.3333 88.6667L56.6667 89.3333L56.3333 88.6667z"/>
<path style="fill:#efebf0; stroke:none;" d="M57.3333 88.6667L57.6667 89.3333L57.3333 88.6667M64 88L65 89L64 88z"/>
<path style="fill:#956f79; stroke:none;" d="M67 88L66 90L68 90L67 88M74.3333 88.6667L74.6667 89.3333L74.3333 88.6667M81 88L82 89L81 88z"/>
<path style="fill:#efebf0; stroke:none;" d="M101 88L102 89L101 88z"/>
<path style="fill:#956f79; stroke:none;" d="M103 88L104 89L103 88M173.333 88.6667L173.667 89.3333L173.333 88.6667z"/>
<path style="fill:#efebf0; stroke:none;" d="M174 88L175 89L174 88z"/>
<path style="fill:#956f79; stroke:none;" d="M227 88L228 89L227 88z"/>
<path style="fill:#efebf0; stroke:none;" d="M229 88L230 89L229 88M240 88L240 89L243 89L240 88z"/>
<path style="fill:#b7a4b9; stroke:none;" d="M243 88L244 89L243 88z"/>
<path style="fill:#956f79; stroke:none;" d="M38.3333 89.6667L38.6667 90.3333L38.3333 89.6667M44.6667 89.3333L45.3333 89.6667L44.6667 89.3333M48 89L49 90L48 89M51.3333 89.6667L51.6667 90.3333L51.3333 89.6667z"/>
<path style="fill:#b7a4b9; stroke:none;" d="M58 89L57 90L58 94L61 90L58 89z"/>
<path style="fill:#956f79; stroke:none;" d="M80 89L81 90L80 89M84.6667 89.3333L85.3333 89.6667L84.6667 89.3333M98 89L98 93L99 93L99 90L101 92C101.951 89.4934 100.348 89.2942 98 89z"/>
<path style="fill:#efebf0; stroke:none;" d="M117.333 89.6667L117.667 90.3333L117.333 89.6667z"/>
<path style="fill:#956f79; stroke:none;" d="M142 89C142.013 92.1942 141.597 94.2708 145 95L145 94L142 89z"/>
<path style="fill:#b7a4b9; stroke:none;" d="M152 95L159 95L159 93L155 93L158 89L152 95z"/>
<path style="fill:#956f79; stroke:none;" d="M212 89L212 94L211 94L211 91L210 91L210 95L213 95L212 89M228 89L229 90L228 89M43 90L41 94L40 91L39 91L40 96L43 90M46.3333 90.6667L46.6667 91.3333L46.3333 90.6667M75 90L75 93L76 93L75 90z"/>
<path style="fill:#efebf0; stroke:none;" d="M76.3333 90.6667L76.6667 91.3333L76.3333 90.6667z"/>
<path style="fill:#956f79; stroke:none;" d="M77 90L78 91L77 90M82 90L83 91L82 90M87.3333 90.6667L87.6667 91.3333L87.3333 90.6667z"/>
<path style="fill:#441147; stroke:none;" d="M99 90L99 93L101 93L101 90L99 90z"/>
<path style="fill:#956f79; stroke:none;" d="M106 90L106 93L107 93L106 90M157 90L158 91L157 90M176.333 90.6667L176.667 91.3333L176.333 90.6667M229 90L230 91L229 90z"/>
<path style="fill:#efebf0; stroke:none;" d="M40 91L40 93L42 93L40 91M48 91L48 93L50 91L48 91z"/>
<path style="fill:#956f79; stroke:none;" d="M50 91L48 92L47 92L48 95L50 91M57.3333 91.6667L57.6667 92.3333L57.3333 91.6667M79 91L80 92L79 91M83 91C84.3153 93.3492 85.1988 94.3645 87 92L86 92L85 94L83 91z"/>
<path style="fill:#efebf0; stroke:none;" d="M84 91L86 93L86 91L84 91z"/>
<path style="fill:#b7a4b9; stroke:none;" d="M116 91L116 93L118 91L116 91z"/>
<path style="fill:#956f79; stroke:none;" d="M156 91L157 92L156 91M183 91L184 92L183 91M230 91L231 92L230 91z"/>
<path style="fill:#efebf0; stroke:none;" d="M232 91L232 93L234 93L232 91z"/>
<path style="fill:#b7a4b9; stroke:none;" d="M49 92L50 93L49 92z"/>
<path style="fill:#efebf0; stroke:none;" d="M59 92L60 93L59 92z"/>
<path style="fill:#956f79; stroke:none;" d="M65 92L66 93L65 92M68.3333 92.6667L68.6667 93.3333L68.3333 92.6667z"/>
<path style="fill:#efebf0; stroke:none;" d="M77 92L78 93L77 92z"/>
<path style="fill:#956f79; stroke:none;" d="M78.3333 92.6667L78.6667 93.3333L78.3333 92.6667z"/>
<path style="fill:#b7a4b9; stroke:none;" d="M84 92L85 93L84 92z"/>
<path style="fill:#956f79; stroke:none;" d="M90 92L90 95L93 95L93 94C91.0399 93.3466 90.446 93 93 93L90 92z"/>
<path style="fill:#efebf0; stroke:none;" d="M108 92L109 93L108 92z"/>
<path style="fill:#956f79; stroke:none;" d="M109 92L110 93L109 92M155 92L156 93L155 92M169.333 92.6667L169.667 93.3333L169.333 92.6667M174 92L175 93L174 92M177 92L178 93L177 92M182 92L183 93L182 92M185 92L186 93L185 92M191 92L192 93L191 92M218 92L218 96L219 96L220 92L218 92M253.333 92.6667L253.667 93.3333L253.333 92.6667z"/>
<path style="fill:#b7a4b9; stroke:none;" d="M40.6667 93.3333L41.3333 93.6667L40.6667 93.3333M48 93L49 94L48 93z"/>
<path style="fill:#956f79; stroke:none;" d="M60 93L61 94L60 93z"/>
<path style="fill:#b7a4b9; stroke:none;" d="M85 93L86 94L85 93M91.6667 93.3333L92.3333 93.6667L91.6667 93.3333z"/>
<path style="fill:#956f79; stroke:none;" d="M107 93L108 94L107 93M112 93L113 94L112 93z"/>
<path style="fill:#efebf0; stroke:none;" d="M123 93L124 94L123 93z"/>
<path style="fill:#956f79; stroke:none;" d="M127 93L123 95L123 96L129 93L127 93z"/>
<path style="fill:#efebf0; stroke:none;" d="M132 93L133 94L132 93M153.667 93.3333L154.333 93.6667L153.667 93.3333z"/>
<path style="fill:#956f79; stroke:none;" d="M175 93L176 94L175 93M179.667 93.3333L180.333 93.6667L179.667 93.3333M184 93L185 94L184 93M195 93L191 95L191 96C193.45 95.8795 196.095 95.9051 195 93z"/>
<path style="fill:#efebf0; stroke:none;" d="M200 93L201 94L200 93z"/>
<path style="fill:#956f79; stroke:none;" d="M204 93L200 95L200 96L206 93L204 93z"/>
<path style="fill:#b7a4b9; stroke:none;" d="M218.333 93.6667L218.667 94.3333L218.333 93.6667z"/>
<path style="fill:#956f79; stroke:none;" d="M232 93L234 95L232 93z"/>
<path style="fill:#b7a4b9; stroke:none;" d="M233 93L234 94L233 93z"/>
<path style="fill:#efebf0; stroke:none;" d="M240 93L241 94L240 93z"/>
<path style="fill:#956f79; stroke:none;" d="M243 93L240 95L240 96C242.338 95.9498 246.808 95.1388 243 93M250 93L251 94L250 93M58.6667 94.3333L59.3333 94.6667L58.6667 94.3333M66.6667 94.3333L67.3333 94.6667L66.6667 94.3333M76.6667 94.3333L77.3333 94.6667L76.6667 94.3333M108.667 94.3333L109.333 94.6667L108.667 94.3333M122 94L123 95L122 94M167.667 94.3333L168.333 94.6667L167.667 94.3333M176 94L177 95L176 94M182.667 94.3333L183.333 94.6667L182.667 94.3333M190 94L191 95L190 94M199 94L200 95L199 94M223.667 94.3333L224.333 94.6667L223.667 94.3333M239 94L240 95L239 94M251.667 94.3333L252.333 94.6667L251.667 94.3333M110 95L110 96L114 96L110 95M178 95L178 96L182 96L178 95z"/>
</svg>
