<?xml version="1.0" standalone="yes"?>
<svg xmlns="http://www.w3.org/2000/svg" width="512" height="512">
<path style="fill:#ff011f; stroke:none;" d="M0 0L0 357L512 357L512 0L0 0z"/>
<path style="fill:#cfa2a7; stroke:none;" d="M247 57L247 58L257 58L247 57M235 58L235 59L239 59L235 58z"/>
<path style="fill:#ffffff; stroke:none;" d="M139 134L173 148C188.652 102.837 246.512 82.5768 288 103.27C318.245 118.356 335.983 148.843 337.625 182C338.163 192.868 335.445 204.973 331.396 215C308.127 272.613 235.207 289.522 191.004 244.999C183.254 237.194 177.227 228.152 173 218L139 232C145.46 247.517 154.888 262.237 167.004 273.961C177.578 284.193 190.369 292.83 204 298.397C284.811 331.398 373.921 270.502 373.921 183C373.921 96.7622 284.64 32.941 204 67.4275C190.385 73.2501 177.644 81.7437 167.004 92.0394C154.87 103.781 145.46 118.463 139 134z"/>
<path style="fill:#cfa2a7; stroke:none;" d="M264 58L264 59L268 59L264 58M229 59L229 60L232 60L229 59M271 59L271 60L274 60L271 59M224 60L224 61L227 61L224 60M277.667 60.3333L278.333 60.6667L277.667 60.3333M221 61L222 62L221 61M281.667 61.3333L282.333 61.6667L281.667 61.3333M217.667 62.3333L218.333 62.6667L217.667 62.3333M285 62L286 63L285 62M214 63L215 64L214 63M288 63L289 64L288 63M211 64L212 65L211 64M291 64L292 65L291 64M208 65L209 66L208 65M294 65L295 66L294 65M206 66L207 67L206 66M296 66L297 67L296 66M203 67L204 68L203 67M299 67L300 68L299 67M201 68L202 69L201 68M301 68L302 69L301 68M199 69L200 70L199 69M303 69L304 70L303 69M197 70L198 71L197 70M305 70L306 71L305 70M195 71L196 72L195 71M307 71L308 72L307 71M193 72L194 73L193 72M309 72L310 73L309 72M191 73L192 74L191 73M190 74L191 75L190 74M312 74L313 75L312 74M188 75L189 76L188 75M314 75L315 76L314 75M185 77L186 78L185 77M317 77L318 78L317 77M182 79L183 80L182 79M320 79L321 80L320 79M321 80L322 81L321 80M179 81L180 82L179 81M178 82L179 83L178 82M324 82L325 83L324 82M325 83L326 84L325 83M174 85L175 86L174 85M328 85L329 86L328 85M173 86L174 87L173 86M329 86L330 87L329 86M172 87L173 88L172 87M330 87L331 88L330 87M331 88L332 89L331 88M332 89L333 90L332 89M240 95L240 96L244 96L240 95M258 95L258 96L263 96L258 95M234 96L234 97L237 97L234 96M266 96L266 97L269 97L266 96M230.667 97.3333L231.333 97.6667L230.667 97.3333M271.667 97.3333L272.333 97.6667L271.667 97.3333M340 97L341 98L340 97M226.667 98.3333L227.333 98.6667L226.667 98.3333M275 98L276 99L275 98M341 98L342 99L341 98M160 99L161 100L160 99M224 99L225 100L224 99M278 99L279 100L278 99M342 99L343 100L342 99M159 100L160 101L159 100M221 100L222 101L221 100M281 100L282 101L281 100M343 100L344 101L343 100M158 101L159 102L158 101M218.667 101.333L219.333 101.667L218.667 101.333M283.667 101.333L284.333 101.667L283.667 101.333M344 101L345 102L344 101M157 102L158 103L157 102M216 102L217 103L216 102M286 102L287 103L286 102M214 103L215 104L214 103M288 103L289 104L288 103M212 104L213 105L212 104M290 104L291 105L290 104M155 105L156 106L155 105M210 105L211 106L210 105M292 105L293 106L292 105M347 105L348 106L347 105M154 106L155 107L154 106M207 107L208 108L207 107M295 107L296 108L295 107M205 108L206 109L205 108M297 108L298 109L297 108M349 108L350 109L349 108M152 109L153 110L152 109M298 109L299 110L298 109M350 109L351 110L350 109M151 110L152 111L151 110M202 110L203 111L202 110M300 110L301 111L300 110M201 111L202 112L201 111M301 111L302 112L301 111M150 112L151 113L150 112M302 112L303 113L302 112M352 112L353 113L352 112M149 113L150 114L149 113M198 113L199 114L198 113M353 113L354 114L353 113M197 114L198 115L197 114M305 114L306 115L305 114M148 115L149 116L148 115M196 115L197 116L196 115M306 115L307 116L306 115M354 115L355 116L354 115M147 116L148 117L147 116M307 116L308 117L307 116M308 117L309 118L308 117M146 118L147 119L146 118M356 118L357 119L356 118M145 120L146 121L145 120M357 120L358 121L357 120M144 122L145 123L144 122M358 122L359 123L358 122M314 123L315 124L314 123M187 124L188 125L187 124M315 124L316 125L315 124M359 124L360 125L359 124M186 125L187 126L186 125M316 125L317 126L316 125M142 126L143 127L142 126M185 126L186 127L185 126M317 126L318 127L317 126M360 126L361 127L360 126M141 128L142 129L141 128M361 128L362 129L361 128M183 129L184 130L183 129M319 129L320 130L319 129M140 130L141 131L140 130M182 130L183 131L182 130M320 130L321 131L320 130M362 130L363 131L362 130M139 132L140 133L139 132M363 132L364 133L363 132M180 133L181 134L180 133M322 133L323 134L322 133M140 134L141 135L140 134M364.333 134.667L364.667 135.333L364.333 134.667M142 135L143 136L142 135M145 136L146 137L145 136M178 136L179 137L178 136M324 136L325 137L324 136M147 137L148 138L147 137M365 137L366 138L365 137M149 138L150 139L149 138M177 138L178 139L177 138M325 138L326 139L325 138M151 139L152 140L151 139M153.667 140.333L154.333 140.667L153.667 140.333M176 140L177 141L176 140M326 140L327 141L326 140M366 140L367 141L366 140M156 141L157 142L156 141M175 141L176 142L175 141M227 141L228 142L227 141z"/>
<path style="fill:#ffffff; stroke:none;" d="M228.603 142.136C225.082 144.331 227 156.352 227 160L227 208C227 211.386 225.281 221.793 228.603 223.864C232.406 226.234 241.812 218.313 245 216.4C261.201 206.68 279.97 198.383 294.851 186.757C301.774 181.348 291.166 176.898 287 174.4C273.058 166.039 258.942 157.961 245 149.6C241.811 147.688 232.407 139.766 228.603 142.136z"/>
<path style="fill:#cfa2a7; stroke:none;" d="M231 141L232 142L231 141M158 142L159 143L158 142M327 142L328 143L327 142M160 143L161 144L160 143M174 143L175 144L174 143M226 143L226 223L227 223L227 168L226 143M234 143L235 144L234 143M367 143L368 144L367 143M162.667 144.333L163.333 144.667L162.667 144.333M236 144L237 145L236 144M328 144L329 145L328 144M165 145L166 146L165 145M167 146L168 147L167 146M173 146L174 147L173 146M239 146L240 147L239 146M329 146L330 147L329 146M368 146L369 147L368 146M169 147L170 148L169 147M241 147L242 148L241 147M171.667 148.333L172.333 148.667L171.667 148.333M330 148L331 149L330 148M244 149L245 150L244 149M369.333 149.667L369.667 150.333L369.333 149.667M246 150L247 151L246 150M331.333 150.667L331.667 151.333L331.333 150.667M248 151L249 152L248 151M249 152L250 153L249 152M251 153L252 154L251 153M332.333 153.667L332.667 154.333L332.333 153.667M370.333 153.667L370.667 154.333L370.333 153.667M253 154L254 155L253 154M256 156L257 157L256 156M333.333 156.667L333.667 157.333L333.333 156.667M258 157L259 158L258 157M371 157L371 160L372 160L371 157M261 159L262 160L261 159M263 160L264 161L263 160M334.333 160.667L334.667 161.333L334.333 160.667M266 162L267 163L266 162M268 163L269 164L268 163M372 163L372 166L373 166L372 163M270 164L271 165L270 164M335.333 164.667L335.667 165.333L335.333 164.667M271 165L272 166L271 165M273 166L274 167L273 166M275 167L276 168L275 167M276 168L277 169L276 168M278 169L279 170L278 169M336 169L336 172L337 172L336 169M280 170L281 171L280 170M373 171L373 179L374 179L373 171M283 172L284 173L283 172M285 173L286 174L285 173M288 175L289 176L288 175M290 176L291 177L290 176M292 177L293 178L292 177M293 178L294 179L293 178M295 179L296 180L295 179M337 180L337 186L338 186L337 180M298.333 182.667L298.667 183.333L298.333 182.667M295 186L296 187L295 186M293 187L294 188L293 187M373 187L373 195L374 195L373 187M290 189L291 190L290 189M288 190L289 191L288 190M285 192L286 193L285 192M283 193L284 194L283 193M336 193L336 197L337 197L336 193M280 195L281 196L280 195M278 196L279 197L278 196M276 197L277 198L276 197M275 198L276 199L275 198M273 199L274 200L273 199M372 199L372 203L373 203L372 199M271 200L272 201L271 200M335.333 200.667L335.667 201.333L335.333 200.667M270 201L271 202L270 201M268 202L269 203L268 202M266 203L267 204L266 203M334.333 204.667L334.667 205.333L334.333 204.667M263 205L264 206L263 205M261 206L262 207L261 206M371 206L371 209L372 209L371 206M258 208L259 209L258 208M333.333 208.667L333.667 209.333L333.333 208.667M256 209L257 210L256 209M254 210L255 211L254 210M253 211L254 212L253 211M332.333 211.667L332.667 212.333L332.333 211.667M370.333 211.667L370.667 212.333L370.333 211.667M251 212L252 213L251 212M249 213L250 214L249 213M248 214L249 215L248 214M331 214L332 215L331 214M246 215L247 216L246 215M369.333 215.667L369.667 216.333L369.333 215.667M244 216L245 217L244 216M171.667 217.333L172.333 217.667L171.667 217.333M330 217L331 218L330 217M169 218L170 219L169 218M241 218L242 219L241 218M167 219L168 220L167 219M173 219L174 220L173 219M239 219L240 220L239 219M329 219L330 220L329 219M368 219L369 220L368 219M165 220L166 221L165 220M162 221L163 222L162 221M174 221L175 222L174 221M236 221L237 222L236 221M328 221L329 222L328 221M160 222L161 223L160 222M234 222L235 223L234 222M367 222L368 223L367 222M158 223L159 224L158 223M327 223L328 224L327 223M156 224L157 225L156 224M227 224L228 225L227 224M231 224L232 225L231 224M153 225L154 226L153 225M176 225L177 226L176 225M326 225L327 226L326 225M366 225L367 226L366 225M151 226L152 227L151 226M149 227L150 228L149 227M177 227L178 228L177 227M325 227L326 228L325 227M147 228L148 229L147 228M365 228L366 229L365 228M144 229L145 230L144 229M178 229L179 230L178 229M324 229L325 230L324 229M142 230L143 231L142 230M323 230L324 231L323 230M364.333 230.667L364.667 231.333L364.333 230.667M140 231L141 232L140 231M180 232L181 233L180 232M322 232L323 233L322 232M139 233L140 234L139 233M321 233L322 234L321 233M363 233L364 234L363 233M140 235L141 236L140 235M182 235L183 236L182 235M320 235L321 236L320 235M362 235L363 236L362 235M183 236L184 237L183 236M319 236L320 237L319 236M141 237L142 238L141 237M361 237L362 238L361 237M142 239L143 240L142 239M185 239L186 240L185 239M317 239L318 240L317 239M360 239L361 240L360 239M186 240L187 241L186 240M316 240L317 241L316 240M143 241L144 242L143 241M187 241L188 242L187 241M315 241L316 242L315 241M359 241L360 242L359 241M188 242L189 243L188 242M314 242L315 243L314 242M144 243L145 244L144 243M313 243L314 244L313 243M358 243L359 244L358 243M145 245L146 246L145 245M357 245L358 246L357 245M146 247L147 248L146 247M309 247L310 248L309 247M356 247L357 248L356 247M308 248L309 249L308 248M355 248L356 249L355 248M195 249L196 250L195 249M307 249L308 250L307 249M148 250L149 251L148 250M196 250L197 251L196 250M306 250L307 251L306 250M354 250L355 251L354 250M197 251L198 252L197 251M305 251L306 252L305 251M150 253L151 254L150 253M302 253L303 254L302 253M352 253L353 254L352 253M201 254L202 255L201 254M301 254L302 255L301 254M151 255L152 256L151 255M152 256L153 257L152 256M204 256L205 257L204 256M298 256L299 257L298 256M350 256L351 257L350 256M205 257L206 258L205 257M349 257L350 258L349 257M207 258L208 259L207 258M295 258L296 259L295 258M154 259L155 260L154 259M293 259L294 260L293 259M155 260L156 261L155 260M210 260L211 261L210 260M292 260L293 261L292 260M347 260L348 261L347 260M212 261L213 262L212 261M290 261L291 262L290 261M346 261L347 262L346 261M214 262L215 263L214 262M288 262L289 263L288 262M157 263L158 264L157 263M216 263L217 264L216 263M286 263L287 264L286 263M158 264L159 265L158 264M219 264L220 265L219 264M283 264L284 265L283 264M159 265L160 266L159 265M221 265L222 266L221 265M281 265L282 266L281 265M343 265L344 266L343 265M160 266L161 267L160 266M224 266L225 267L224 266M278 266L279 267L278 266M342 266L343 267L342 266M227 267L228 268L227 267M274.667 267.333L275.333 267.667L274.667 267.333M341 267L342 268L341 267M230.667 268.333L231.333 268.667L230.667 268.333M271 268L272 269L271 268M340 268L341 269L340 268M235.667 269.333L236.333 269.667L235.667 269.333M266 269L266 270L269 270L266 269M241 270L241 271L245 271L241 270M257 270L257 271L262 271L257 270M333 275L334 276L333 275M332 276L333 277L332 276M331 277L332 278L331 277M172 278L173 279L172 278M330 278L331 279L330 278M173 279L174 280L173 279M329 279L330 280L329 279M174 280L175 281L174 280M328 280L329 281L328 280M325 282L326 283L325 282M178 283L179 284L178 283M324 283L325 284L324 283M179 284L180 285L179 284M181 285L182 286L181 285M321 285L322 286L321 285M182 286L183 287L182 286M320 286L321 287L320 286M185 288L186 289L185 288M317 288L318 289L317 288M188 290L189 291L188 290M314 290L315 291L314 290M190 291L191 292L190 291M312 291L313 292L312 291M193 293L194 294L193 293M309 293L310 294L309 293M195 294L196 295L195 294M307 294L308 295L307 294M197 295L198 296L197 295M305 295L306 296L305 295M199 296L200 297L199 296M303 296L304 297L303 296M201 297L202 298L201 297M301 297L302 298L301 297M204 298L205 299L204 298M298.667 298.333L299.333 298.667L298.667 298.333M206 299L207 300L206 299M296 299L297 300L296 299M208.667 300.333L209.333 300.667L208.667 300.333M293.667 300.333L294.333 300.667L293.667 300.333M211 301L212 302L211 301M291 301L292 302L291 301M214 302L215 303L214 302M288 302L289 303L288 302M217.667 303.333L218.333 303.667L217.667 303.333M284.667 303.333L285.333 303.667L284.667 303.333M221.667 304.333L222.333 304.667L221.667 304.333M281 304L282 305L281 304M225.667 305.333L226.333 305.667L225.667 305.333M276.667 305.333L277.333 305.667L276.667 305.333M230.667 306.333L231.333 306.667L230.667 306.333M271 306L271 307L274 307L271 306M236 307L236 308L240 308L236 307M264 307L264 308L267 308L264 307M249 308L249 309L255 309L249 308z"/>
<path style="fill:#010101; stroke:none;" d="M0 357L0 512L512 512L512 357L0 357z"/>
<path style="fill:#5b5b5b; stroke:none;" d="M93 392L93 393L133 392L210 392L178 391L122 391L93 392M271 391L271 392L394 392C384.211 387.892 367.634 391 357 391L271 391z"/>
<path style="fill:#ffffff; stroke:none;" d="M94 392L94 471L195 471C210.781 471 229.412 472.46 241.957 460.815C260.27 443.814 254.646 404.584 231 395.877C215.284 390.089 197.426 392 181 392L94 392z"/>
<path style="fill:#cfa2a7; stroke:none;" d="M215 392L215 393L218 393L215 392z"/>
<path style="fill:#5b5b5b; stroke:none;" d="M218.667 392.333L219.333 392.667L218.667 392.333z"/>
<path style="fill:#ffffff; stroke:none;" d="M270 392L270 471L316 471C316 465.902 314.245 456.715 317.179 452.318C320.555 447.258 341.397 449.07 346 451.893C354.021 456.811 360.702 468.366 370 470.682C386.899 474.892 409.551 471 427 471L392 443C401.199 442.81 410.683 440.563 416.606 432.996C426.767 420.014 420.081 399.345 405 394.101C391.414 389.377 374.2 392 360 392L270 392z"/>
<path style="fill:#cfa2a7; stroke:none;" d="M398.667 392.333L399.333 392.667L398.667 392.333z"/>
<path style="fill:#5b5b5b; stroke:none;" d="M400 392L401 393L400 392z"/>
<path style="fill:#cfa2a7; stroke:none;" d="M93 393L93 471L94 471L94 417L93 393M222.667 393.333L223.333 393.667L222.667 393.333z"/>
<path style="fill:#5b5b5b; stroke:none;" d="M224 393L225 394L224 393M269 393L269 470L270 470L270 417L269 393z"/>
<path style="fill:#cfa2a7; stroke:none;" d="M403 393L404 394L403 393z"/>
<path style="fill:#5b5b5b; stroke:none;" d="M404 393L405 394L404 393z"/>
<path style="fill:#cfa2a7; stroke:none;" d="M226 394L227 395L226 394z"/>
<path style="fill:#5b5b5b; stroke:none;" d="M227.667 394.333L228.333 394.667L227.667 394.333z"/>
<path style="fill:#cfa2a7; stroke:none;" d="M406 394L407 395L406 394z"/>
<path style="fill:#5b5b5b; stroke:none;" d="M407 394L408 395L407 394z"/>
<path style="fill:#cfa2a7; stroke:none;" d="M230 395L231 396L230 395M408 395L409 396L408 395z"/>
<path style="fill:#5b5b5b; stroke:none;" d="M409 395L410 396L409 395z"/>
<path style="fill:#cfa2a7; stroke:none;" d="M232 396L233 397L232 396z"/>
<path style="fill:#5b5b5b; stroke:none;" d="M233 396L234 397L233 396z"/>
<path style="fill:#cfa2a7; stroke:none;" d="M410 396L411 397L410 396z"/>
<path style="fill:#5b5b5b; stroke:none;" d="M235 397L236 398L235 397M412 397L413 398L412 397z"/>
<path style="fill:#cfa2a7; stroke:none;" d="M236 398L237 399L236 398z"/>
<path style="fill:#5b5b5b; stroke:none;" d="M237 398L238 399L237 398z"/>
<path style="fill:#cfa2a7; stroke:none;" d="M413 398L414 399L413 398M238 399L239 400L238 399M414 399L415 400L414 399z"/>
<path style="fill:#5b5b5b; stroke:none;" d="M240 400L241 401L240 400M415 400L416 401L415 400M241 401L242 402L241 401M416 401L417 402L416 401M242 402L243 403L242 402M417 402L418 403L417 402M243 403L244 404L243 403z"/>
<path style="fill:#cfa2a7; stroke:none;" d="M417 403L418 404L417 403z"/>
<path style="fill:#5b5b5b; stroke:none;" d="M244 404L245 405L244 404M418 404L419 405L418 404z"/>
<path style="fill:#cfa2a7; stroke:none;" d="M140 406L141 407L140 406z"/>
<path style="fill:#5b5b5b; stroke:none;" d="M140 456L141 456L141 407L181 407L151 406L141.028 407.603L140 421L140 456z"/>
<path style="fill:#cfa2a7; stroke:none;" d="M181 406L181 407L184 407L181 406M317 406L318 407L317 406z"/>
<path style="fill:#5b5b5b; stroke:none;" d="M318 406L318 407L360 407C349.012 402.389 329.957 406 318 406z"/>
<path style="fill:#cfa2a7; stroke:none;" d="M360 406L360 407L363 407L360 406z"/>
<path style="fill:#5b5b5b; stroke:none;" d="M419 406L420 407L419 406z"/>
<path style="fill:#010101; stroke:none;" d="M141 407L141 457C156.492 457 181.242 461.462 194.996 452.995C207.594 445.239 207.957 417.901 194.996 410.367C181.185 402.337 156.528 407 141 407z"/>
<path style="fill:#5b5b5b; stroke:none;" d="M187 407L188 408L187 407z"/>
<path style="fill:#cfa2a7; stroke:none;" d="M188.667 407.333L189.333 407.667L188.667 407.333z"/>
<path style="fill:#5b5b5b; stroke:none;" d="M246 407L247 408L246 407z"/>
<path style="fill:#010101; stroke:none;" d="M317 407L317 436C331.13 436 354.028 440.363 366.985 434.347C375.228 430.52 376.968 415.591 369.775 409.854C365.128 406.147 358.545 407 353 407L317 407z"/>
<path style="fill:#5b5b5b; stroke:none;" d="M365 407L366 408L365 407z"/>
<path style="fill:#cfa2a7; stroke:none;" d="M366 407L367 408L366 407M419 407L420 408L419 407z"/>
<path style="fill:#5b5b5b; stroke:none;" d="M191 408L192 409L191 408z"/>
<path style="fill:#cfa2a7; stroke:none;" d="M192 408L193 409L192 408M368 408L369 409L368 408z"/>
<path style="fill:#5b5b5b; stroke:none;" d="M193 409L194 410L193 409z"/>
<path style="fill:#cfa2a7; stroke:none;" d="M194 409L195 410L194 409M247 409L248 410L247 409z"/>
<path style="fill:#5b5b5b; stroke:none;" d="M369 409L370 410L369 409z"/>
<path style="fill:#cfa2a7; stroke:none;" d="M370 409L371 410L370 409z"/>
<path style="fill:#5b5b5b; stroke:none;" d="M420 409L421 410L420 409M195 410L196 411L195 410M248 410L249 411L248 410z"/>
<path style="fill:#cfa2a7; stroke:none;" d="M371 410L372 411L371 410M420 410L421 411L420 410M197 411L198 412L197 411M248 411L249 412L248 411M198 412L199 413L198 412z"/>
<path style="fill:#5b5b5b; stroke:none;" d="M372 412L373 413L372 412z"/>
<path style="fill:#cfa2a7; stroke:none;" d="M199 413L200 414L199 413M249 413L250 414L249 413M200 414L201 415L200 414z"/>
<path style="fill:#5b5b5b; stroke:none;" d="M373.333 414.667L373.667 415.333L373.333 414.667M421 414L421 422L422 422L421 414M250 415L251 416L250 415z"/>
<path style="fill:#cfa2a7; stroke:none;" d="M201 416L202 417L201 416M250 416L251 417L250 416M374 417L374 420L375 420L374 417M202 418L203 419L202 418z"/>
<path style="fill:#5b5b5b; stroke:none;" d="M202 419L203 420L202 419M251.333 419.667L251.667 420.333L251.333 419.667M374.333 420.667L374.667 421.333L374.333 420.667z"/>
<path style="fill:#cfa2a7; stroke:none;" d="M203 421L204 422L203 421M251.333 421.667L251.667 422.333L251.333 421.667z"/>
<path style="fill:#5b5b5b; stroke:none;" d="M203.333 422.667L203.667 423.333L203.333 422.667z"/>
<path style="fill:#cfa2a7; stroke:none;" d="M374 422L374 425L375 425L374 422M420.333 424.667L420.667 425.333L420.333 424.667z"/>
<path style="fill:#5b5b5b; stroke:none;" d="M252 426L252 437L253 437L252 426M420 426L421 427L420 426z"/>
<path style="fill:#cfa2a7; stroke:none;" d="M204 427L204 436L205 436L204 427z"/>
<path style="fill:#5b5b5b; stroke:none;" d="M373 427L374 428L373 427z"/>
<path style="fill:#cfa2a7; stroke:none;" d="M373 428L374 429L373 428M419 428L420 429L419 428z"/>
<path style="fill:#5b5b5b; stroke:none;" d="M372 429L373 430L372 429z"/>
<path style="fill:#cfa2a7; stroke:none;" d="M372 430L373 431L372 430M418 430L419 431L418 430z"/>
<path style="fill:#5b5b5b; stroke:none;" d="M371 431L372 432L371 431M370 432L371 433L370 432M417 432L418 433L417 432z"/>
<path style="fill:#cfa2a7; stroke:none;" d="M369 433L370 434L369 433M416 433L417 434L416 433z"/>
<path style="fill:#5b5b5b; stroke:none;" d="M367 434L368 435L367 434z"/>
<path style="fill:#cfa2a7; stroke:none;" d="M415 434L416 435L415 434z"/>
<path style="fill:#5b5b5b; stroke:none;" d="M363.667 435.333L364.333 435.667L363.667 435.333z"/>
<path style="fill:#cfa2a7; stroke:none;" d="M365 435L366 436L365 435M414 435L415 436L414 435M317 436L317 437L361 437C349.537 432.19 329.48 436 317 436M413 436L414 437L413 436M412 437L413 438L412 437z"/>
<path style="fill:#5b5b5b; stroke:none;" d="M411 438L412 439L411 438M203.333 439.667L203.667 440.333L203.333 439.667M409 439L410 440L409 439z"/>
<path style="fill:#cfa2a7; stroke:none;" d="M251.333 440.667L251.667 441.333L251.333 440.667M406 440L407 441L406 440z"/>
<path style="fill:#5b5b5b; stroke:none;" d="M407 440L408 441L407 440z"/>
<path style="fill:#cfa2a7; stroke:none;" d="M203 441L204 442L203 441M403.667 441.333L404.333 441.667L403.667 441.333z"/>
<path style="fill:#5b5b5b; stroke:none;" d="M251.333 442.667L251.667 443.333L251.333 442.667z"/>
<path style="fill:#cfa2a7; stroke:none;" d="M398.667 442.333L399.333 442.667L398.667 442.333z"/>
<path style="fill:#5b5b5b; stroke:none;" d="M400.667 442.333L401.333 442.667L400.667 442.333M202 443L203 444L202 443M392 443L393 444L392 443z"/>
<path style="fill:#cfa2a7; stroke:none;" d="M202 444L203 445L202 444M392 444L393 445L392 444M250.333 445.667L250.667 446.333L250.333 445.667M393 445L394 446L393 445z"/>
<path style="fill:#5b5b5b; stroke:none;" d="M201 446L202 447L201 446M395 446L396 447L395 446M250 447L251 448L250 447z"/>
<path style="fill:#cfa2a7; stroke:none;" d="M396 447L397 448L396 447M200 448L201 449L200 448M397 448L398 449L397 448z"/>
<path style="fill:#5b5b5b; stroke:none;" d="M199 449L200 450L199 449z"/>
<path style="fill:#cfa2a7; stroke:none;" d="M249 449L250 450L249 449z"/>
<path style="fill:#5b5b5b; stroke:none;" d="M399 449L400 450L399 449M198 450L199 451L198 450z"/>
<path style="fill:#cfa2a7; stroke:none;" d="M317 450L317 451L345 451L317 450M400 450L401 451L400 450z"/>
<path style="fill:#5b5b5b; stroke:none;" d="M197 451L198 452L197 451z"/>
<path style="fill:#cfa2a7; stroke:none;" d="M248 451L249 452L248 451z"/>
<path style="fill:#5b5b5b; stroke:none;" d="M345 451L346 452L345 451z"/>
<path style="fill:#cfa2a7; stroke:none;" d="M196 452L197 453L196 452z"/>
<path style="fill:#5b5b5b; stroke:none;" d="M248 452L249 453L248 452z"/>
<path style="fill:#cfa2a7; stroke:none;" d="M316 452L316 471L317 471L316 452M347 452L348 453L347 452z"/>
<path style="fill:#5b5b5b; stroke:none;" d="M403 452L404 453L403 452M194 453L195 454L194 453z"/>
<path style="fill:#cfa2a7; stroke:none;" d="M247 453L248 454L247 453M348 453L349 454L348 453M404 453L405 454L404 453z"/>
<path style="fill:#5b5b5b; stroke:none;" d="M192 454L193 455L192 454M247 454L248 455L247 454z"/>
<path style="fill:#cfa2a7; stroke:none;" d="M349 454L350 455L349 454z"/>
<path style="fill:#5b5b5b; stroke:none;" d="M406 454L407 455L406 454M188.667 455.333L189.333 455.667L188.667 455.333z"/>
<path style="fill:#cfa2a7; stroke:none;" d="M190 455L191 456L190 455z"/>
<path style="fill:#5b5b5b; stroke:none;" d="M246 455L247 456L246 455M350 455L351 456L350 455M407 455L408 456L407 455z"/>
<path style="fill:#cfa2a7; stroke:none;" d="M140 456L141 457L140 456z"/>
<path style="fill:#5b5b5b; stroke:none;" d="M181 456L181 457L184 457L181 456z"/>
<path style="fill:#cfa2a7; stroke:none;" d="M184.667 456.333L185.333 456.667L184.667 456.333z"/>
<path style="fill:#5b5b5b; stroke:none;" d="M351 456L352 457L351 456z"/>
<path style="fill:#cfa2a7; stroke:none;" d="M408 456L409 457L408 456z"/>
<path style="fill:#5b5b5b; stroke:none;" d="M245 457L246 458L245 457M352 457L353 458L352 457M410 457L411 458L410 457M244 458L245 459L244 458z"/>
<path style="fill:#cfa2a7; stroke:none;" d="M354 458L355 459L354 458z"/>
<path style="fill:#5b5b5b; stroke:none;" d="M411 458L412 459L411 458M243 459L244 460L243 459z"/>
<path style="fill:#cfa2a7; stroke:none;" d="M355 459L356 460L355 459M412 459L413 460L412 459z"/>
<path style="fill:#5b5b5b; stroke:none;" d="M242 460L243 461L242 460z"/>
<path style="fill:#cfa2a7; stroke:none;" d="M356 460L357 461L356 460z"/>
<path style="fill:#5b5b5b; stroke:none;" d="M414 460L415 461L414 460M241 461L242 462L241 461M357 461L358 462L357 461z"/>
<path style="fill:#cfa2a7; stroke:none;" d="M415 461L416 462L415 461z"/>
<path style="fill:#5b5b5b; stroke:none;" d="M240 462L241 463L240 462M358 462L359 463L358 462z"/>
<path style="fill:#cfa2a7; stroke:none;" d="M416 462L417 463L416 462M238 463L239 464L238 463z"/>
<path style="fill:#5b5b5b; stroke:none;" d="M359 463L360 464L359 463M418 463L419 464L418 463M237 464L238 465L237 464z"/>
<path style="fill:#cfa2a7; stroke:none;" d="M419 464L420 465L419 464M235 465L236 466L235 465M362 465L363 466L362 465M420 465L421 466L420 465M233 466L234 467L233 466M363 466L364 467L363 466z"/>
<path style="fill:#5b5b5b; stroke:none;" d="M422 466L423 467L422 466z"/>
<path style="fill:#cfa2a7; stroke:none;" d="M230 467L231 468L230 467z"/>
<path style="fill:#5b5b5b; stroke:none;" d="M231 467L232 468L231 467M364 467L365 468L364 467z"/>
<path style="fill:#cfa2a7; stroke:none;" d="M423 467L424 468L423 467M227 468L228 469L227 468z"/>
<path style="fill:#5b5b5b; stroke:none;" d="M228.667 468.333L229.333 468.667L228.667 468.333M365 468L366 469L365 468z"/>
<path style="fill:#cfa2a7; stroke:none;" d="M224 469L225 470L224 469z"/>
<path style="fill:#5b5b5b; stroke:none;" d="M225 469L226 470L225 469M366 469L367 470L366 469M426 469L427 470L426 469z"/>
<path style="fill:#cfa2a7; stroke:none;" d="M218.667 470.333L219.333 470.667L218.667 470.333z"/>
<path style="fill:#5b5b5b; stroke:none;" d="M220.667 470.333L221.333 470.667L220.667 470.333z"/>
<path style="fill:#cfa2a7; stroke:none;" d="M94 471L94 472L210 472L175 471L94 471z"/>
<path style="fill:#5b5b5b; stroke:none;" d="M210 471L210 472L215 472L210 471M270 471L271 472L270 471z"/>
<path style="fill:#cfa2a7; stroke:none;" d="M271 471L271 472L316 472C304.299 467.09 283.742 471 271 471z"/>
<path style="fill:#5b5b5b; stroke:none;" d="M369 471L370 472L369 471z"/>
<path style="fill:#cfa2a7; stroke:none;" d="M370 471L370 472L426 472L408 471L370 471z"/>
<path style="fill:#5b5b5b; stroke:none;" d="M426 471L427 472L426 471z"/>
</svg>
