<?xml version="1.0" standalone="yes"?>
<svg xmlns="http://www.w3.org/2000/svg" width="600" height="600">
<path style="fill:#010101; stroke:none;" d="M0 0L0 600L600 600L600 0L0 0z"/>
<path style="fill:#eb4335; stroke:none;" d="M53 179L146 249C156.18 226.142 166.681 205.471 184.09 187.004C220.467 148.414 278.26 130.454 330 141.004C347.251 144.521 363.713 150.678 379 159.427C384.37 162.501 394.892 173.331 401 172.883C408.081 172.364 418.17 157.83 423 153C442.122 133.878 466.439 115.091 482 93C452.802 70.8342 424.033 51.0898 389 39.0787C299.348 8.34161 198.599 27.5189 125 86.3997C102.521 104.384 82.8098 126.544 67.5764 151C62.2865 159.493 54.7823 169.001 53 179z"/>
<path style="fill:#fbbd05; stroke:none;" d="M340 27L341 28L340 27M229 33L230 34L229 33M435 60L436 61L435 60M135 78L136 79L135 78M126 85L127 86L126 85M479 91L480 92L479 91M85 126L86 127L85 126M78 135L79 136L78 135M271 140L272 141L271 140M242 148L243 149L242 148M237 150L238 151L237 150M197 174L198 175L197 174M52 178C29.4202 236.2 17.2795 293.574 30.0039 356C34.7202 379.138 43.513 400.125 52 422L82 399.884L146 351C141.835 330.874 136.661 311.858 138.09 291C138.704 282.026 140.023 272.749 142.13 264C143.089 260.019 146.088 254.183 145.096 250.09C143.322 242.77 127.741 235.041 122 230.576C100.062 213.51 76.8619 190.382 52 178M189 181L190 182L189 181M181 189L182 190L181 189M150 237L151 238L150 237M148 242L149 243L148 242z"/>
<path style="fill:#4385f4; stroke:none;" d="M300 250L300 357L447 357C437.558 390.274 421.345 417.529 392 437C398.297 449.922 419.715 460.783 431 469.576C442.303 478.382 453.647 487.139 465 495.881C468.649 498.691 474.129 504.951 479 505.169C484.067 505.395 489.786 497.365 492.83 494C504.272 481.353 514.996 467.775 523.576 453C551.759 404.467 565.417 347.086 562.961 291C562.353 277.125 558.77 263.708 557 250L300 250z"/>
<path style="fill:#35a953; stroke:none;" d="M557 253L558 254L557 253M558 258L559 259L558 258M559.333 263.667L559.667 264.333L559.333 263.667M562 317L563 318L562 317M53 421C54.651 430.262 61.3697 439.147 66.3187 447C79.6881 468.214 95.5642 487.132 114 504.086C190.321 574.272 305.866 594.766 402 556.2C427.851 545.829 463.452 529.297 480 506C457.167 492.991 436.953 473.001 416 457.13C409.344 452.088 400.08 441.383 392 439.263C386.465 437.811 375.215 446.384 370 448.691C354.999 455.329 338.295 459.195 322 460.831C263.854 466.667 207.665 444.687 171.425 398C160.156 383.483 153.688 367.436 146 351L120 370.116L53 421M446 358L447 359L446 358M445 362L446 363L445 362M554 375L555 376L554 375M553 379L554 380L553 379M437 385L438 386L437 385M436 387L437 388L436 387M428 401L429 402L428 401M426 404L427 405L426 404M424 407L425 408L424 407M544 408L545 409L544 408M538 423L539 424L538 423M403 429L404 430L403 429M399 432L400 433L399 432M526 447L527 448L526 447M511 470L512 471L511 470M509 473L510 474L509 473M502 482L503 483L502 482M496 489L497 490L496 489M495 490L496 491L495 490z"/>
</svg>
