<?xml version="1.0" standalone="yes"?>
<svg xmlns="http://www.w3.org/2000/svg" width="512" height="512">
<path style="fill:#e0e6eb; stroke:none;" d="M0 0L0 512L383 512L383 477L384.179 462.263L412 441L418 437L431 431C431 427.319 446.316 429 450 429L512 429L512 0L0 0z"/>
<path style="fill:#4c7285; stroke:none;" d="M399 37L400 46C382.173 49.4494 380.808 78.0097 399 82.4854C410.894 85.4116 413.927 68.4873 425 71L417 69C417 59.1071 416.36 49.1886 405 46L405 37L399 37M441 37L442 42C429.383 43.422 433.644 76.2916 444 80L444 81L440 80C436.124 88.0549 439.409 116.146 448 120C444.513 125.746 445.838 136.732 450.026 142.277C451.508 144.239 454.511 144.468 455.184 147.144C455.977 150.299 453.32 154.823 452.758 158C451.164 167.009 452.034 185.484 443 190L440 181L439 181L440 191C435.602 194.425 449.959 208.818 455.606 204.382C464.665 197.266 457.313 169.494 470.217 165.346C473.981 164.135 477.059 171.529 478.346 174C483.031 182.991 487.567 189.264 479 197L479 198L489 200L488 205L489 206C505.461 201.688 488.331 173.857 485.888 163C483.718 153.358 489.256 145.451 490.497 136C491.985 124.664 489.86 112.438 490.379 101C491.198 82.9579 500.02 58.0289 491.441 41.1481C487.316 33.0338 462.357 40.5581 455 40.9645C450.114 41.2344 445.677 42.4749 444 37L441 37z"/>
<path style="fill:#202020; stroke:none;" d="M437 45L437 46C450.941 46.766 438.636 52.8175 438.636 57.9892C438.636 61.2661 443.708 61.5676 443.654 65.0038C443.595 68.7667 433.128 77.5017 445 75L441 89C450.412 91.2222 442.338 95.7127 443.175 100.772C443.942 105.406 449.936 103.876 449 111L444 109C442.817 115.402 447.623 114.768 449.941 119.396C451.527 122.562 446.712 123.906 447.176 126.855C447.674 130.016 452.806 133.225 454 137L450 142C452.542 142.69 456.311 143.125 457.096 146.147C458.071 149.904 454.88 154.372 454.174 158C451.982 169.254 454.252 191.631 439 192C440.73 194.871 449.701 202.688 452.934 198.392C455.156 195.439 453.39 188.668 454.556 185C457.819 174.726 462.133 165.087 466 155C477.947 163.835 489.772 184.183 483 198C485.911 197.305 491.225 197.567 492.929 194.682C494.911 191.326 491.332 185.21 490.089 182C486.273 172.148 481.634 161.503 480.429 151C479.62 143.952 486.174 143.293 486.891 136.995C488.806 120.179 485.487 102.851 487.171 86C488.346 74.2336 493.283 57.4269 490 46L488 46L486 51C480.299 47.8439 483.127 43.0331 489 44C490.091 36.8572 481.565 39.8157 477 39.9892C470.255 40.2455 463.774 42.4466 457 42.9105C450.179 43.3776 443.331 41.9532 437 45z"/>
<path style="fill:#0e9edd; stroke:none;" d="M16.3179 45.0278C11.9659 47.9319 12.1483 72.7907 15.6034 76.527C21.6761 83.0939 40.3453 71.6942 44.1829 82.0586C47.0659 89.845 45 101.771 45 110L45 168C45 176.556 43.102 187.685 45.3179 195.956C46.9804 202.162 68.0851 203.502 72.8511 200.307C78.5673 196.475 75.3719 180.151 75.5941 174C76.5899 146.444 76.6184 118.466 75.2091 91C73.9728 66.9052 103.994 88.0432 105.891 70.9992C106.55 65.0838 107.275 49.6645 102.501 45.6281C98.4086 42.1684 88.0544 44 83 44L35 44C30.0659 44 20.5653 42.1935 16.3179 45.0278z"/>
<path style="fill:#e0e6eb; stroke:none;" d="M484 44L484 47L486 47L486 44L484 44z"/>
<path style="fill:#202020; stroke:none;" d="M391 51L391 53C397.261 54.5087 405.427 46.138 407 56L415 58C412.941 45.0516 399.734 46.445 391 51z"/>
<path style="fill:#e0e6eb; stroke:none;" d="M439 47L438 53C442.57 52.2373 443.93 48.6386 439 47M400 52L404 56L405 51L400 52z"/>
<path style="fill:#4c7285; stroke:none;" d="M106 53C103.98 59.8767 109.274 71.3769 102.772 76.3966C96.3026 81.3905 79.4381 72.8781 76.2284 82.0586C72.9823 91.3431 75.5386 105.277 75.9606 115C76.785 133.994 77.1195 154.079 75.4637 173C74.8868 179.593 78.642 194.882 72.8372 199.512C67.124 204.07 56.5902 199.335 50 201C55.4301 210.167 78.2169 212.831 79.7963 199C82.6099 174.361 79 147.011 79 122C79 113.005 76.7733 100.463 80.1481 92.0046C84.76 80.4467 99.3623 90.5861 106.566 82.7215C111.537 77.2954 110.558 58.2841 106 53z"/>
<path style="fill:#e0e6eb; stroke:none;" d="M393.603 56.1566C391.87 57.3145 393.664 60.0014 395.397 58.8434C397.13 57.6856 395.336 54.9985 393.603 56.1566z"/>
<path style="fill:#202020; stroke:none;" d="M399 56L398 61C393.654 61.0034 389.56 60.3002 388 65C393.077 65.0179 397.196 64.96 397 71L405 72C406.104 65.0551 408.887 64.3932 406 57L399 56z"/>
<path style="fill:#e0e6eb; stroke:none;" d="M409 57L408 58L411 62L411 57L409 57z"/>
<path style="fill:#4c7285; stroke:none;" d="M483 60L482 64L486 64L485 60L483 60M398 62L398 65L405 67C404.616 62.1891 402.646 61.1381 398 62z"/>
<path style="fill:#202020; stroke:none;" d="M413 73C416.947 70.2114 416.248 65.224 415 61C409.989 63.7903 412.011 68.2022 413 73z"/>
<path style="fill:#e0e6eb; stroke:none;" d="M438 67L442 67L442 63L438 67M391.643 67.0671C389.453 68.6896 392.404 71.3802 394.357 69.9329C396.547 68.3104 393.596 65.6198 391.643 67.0671M407 68L407 72L412 71L407 68z"/>
<path style="fill:#202020; stroke:none;" d="M390 73L397 80L398 79L397 73L390 73z"/>
<path style="fill:#e0e6eb; stroke:none;" d="M398 74L399 78L404 74L398 74z"/>
<path style="fill:#202020; stroke:none;" d="M405 73L405 80L411 74L405 73z"/>
<path style="fill:#4c7285; stroke:none;" d="M481 76L481 78L483 76L481 76M19 78C22.1079 88.9723 36.0489 86 45 86C44.3398 73.9834 27.8706 78 19 78z"/>
<path style="fill:#202020; stroke:none;" d="M79 81L79 83L81 83L81 81L79 81z"/>
<path style="fill:#0e9edd; stroke:none;" d="M391.589 88.1173C386.708 91.331 390 110.584 390 116L390 170C390 177.27 388.077 187.003 389.662 193.981C391.188 200.701 404.804 201.228 409.682 197.972C414.897 194.492 412 176.682 412 171C412 146.831 415.989 118.756 411.671 95.0008C410.423 88.1366 397.443 84.2632 391.589 88.1173M157 88.7029C145.613 92.5557 143.312 106.891 140.866 117C136.382 135.533 128.13 153.404 123.37 172C121.704 178.51 114.663 191.239 119.028 197.566C121.365 200.955 134.488 200.805 137.772 198.82C142.107 196.2 141.488 189.746 146.044 186.742C152.591 182.426 174.501 183.369 181.999 185.434C188.117 187.119 188.117 193.022 192.147 196.812C195.741 200.192 208.262 200.513 212.682 198.258C215.86 196.637 214.777 192.654 213.83 190C210.893 181.765 209.396 173.053 206.269 165C199.923 148.653 196.229 131.683 190.425 115.17C188.051 108.414 187.228 101.185 183.031 95.0432C177.931 87.5799 165.195 85.9301 157 88.7029M256 116C258.129 131.813 265.002 147.881 270.026 163C273.556 173.622 274.14 182.78 281.178 191.942C291.643 205.566 314.285 197.883 321.347 185C328.94 171.149 322.789 148.272 324.169 133C324.516 129.16 322.462 117.602 327.965 116.631C331.676 115.977 334.101 131.124 335.424 134C344.079 152.826 344.631 175.252 353.653 193.956C356.383 199.616 374.2 202.492 377.968 196.682C380.293 193.099 377.218 189.252 375.915 186C372.713 178.005 371.836 169.031 368.796 160.91C361.237 140.722 359.009 116.194 347.29 98.0038C340.532 87.5133 323.79 83.7853 313.039 90.9699C289.157 106.93 306.356 147.795 299 171C292.709 167.47 291.395 154.825 289.601 148C285.722 133.244 282.494 109.696 272.741 97.6651C262.231 84.7011 238.432 83.1007 230.313 100C227.182 106.518 228 114.989 228 122C228 136.709 229.562 152.398 227.816 167C226.92 174.488 224.499 188.636 227.742 195.786C230.401 201.649 242.03 200.442 246.891 198.397C252.593 195.999 250.673 185.109 250.896 180C251.552 164.951 251.094 148.021 250.09 133C249.653 126.474 248.479 118.182 256 116z"/>
<path style="fill:#e0e6eb; stroke:none;" d="M443 91L442 95L445 95L443 91z"/>
<path style="fill:#4c7285; stroke:none;" d="M481 91L482 92L481 91M412 96L412 170C412 176.498 414.761 191.502 410.397 196.682C407.286 200.374 400.274 198.737 396 200C398.359 206.714 411.734 209.538 415.106 201.867C418.044 195.185 416 184.199 416 177L416 121C416 113.128 418.277 101.801 412 96M190 112L191 118L192 118L190 112M279 112L282 119L279 112M353 112L356 118L353 112M285 196C295.597 210.263 318.19 206.965 325.442 191C332.142 176.252 327.011 155.751 328.09 140C328.506 133.921 331.541 127.617 331.682 121.911C331.733 119.847 330.867 115.461 327.965 115.921C321.381 116.964 324 140.822 324 146C324 166.99 327.125 195.984 299 198.535C294.101 198.98 289.735 196.805 285 196M233 200C235.884 209.356 251.451 208.05 254.255 199C259.12 183.294 255 160.443 255 144C255 139.063 251.661 127.619 258 126L256 116C246.053 117.586 250.669 132.709 250.406 140C249.882 154.488 251.781 169.729 250.289 184C249.852 188.185 251.815 193.271 248.562 196.682C245.299 200.104 237.452 199.809 233 200M170 128L167 118C158.32 120.635 157.025 141.199 154.135 149C153.343 151.136 150.036 158.4 155.09 158.248C158.966 158.132 159.622 152.798 160.427 150C162.057 144.341 163.943 129.726 170 128M282 120L283 129L284 129L282 120M193 122L195 129L196 129L193 122M357 123L359 131L360 131L357 123z"/>
<path style="fill:#e0e6eb; stroke:none;" d="M167 127C165.055 133.852 157.24 148.979 159.694 155.772C161.437 160.6 176.01 160.87 177.562 155.852C180.041 147.842 172.421 134.036 169 127L167 127z"/>
<path style="fill:#4c7285; stroke:none;" d="M284 129L285 130L284 129M360.333 131.667L360.667 132.333L360.333 131.667z"/>
<path style="fill:#e0e6eb; stroke:none;" d="M450 133L449 135L451 135L450 133z"/>
<path style="fill:#4c7285; stroke:none;" d="M361 134L362 140L363 140L361 134M197 135L197 141L198 141L197 135M286 135L289 147L290 147L286 135M363 140L364 141L363 140M198 141L199 142L198 141M200 145L203 153L200 145M452 145L453 146L452 145M364 146L366 154L367 154L364 146M264 147L265 148L264 147M290 148L292 157L293 157L290 148M367 154L367 157L368 157L367 154M204 157L204 161L205 161L204 157M368 157L368 161L369 161L368 157M205 161L205 164L206 164L205 161M369 161L371 164L369 161M294 163L297 170L294 163M206 165L207 166L206 165M208 170L211 179L208 170M297.667 170.333L298.333 170.667L297.667 170.333M372 171L378 189L372 171M212 184L213 190L214 190L212 184M123 200C125.944 206.327 133.481 207.781 139.907 205.106C144.908 203.025 145.624 196.842 150.105 194.14C158.352 189.166 180.396 190.353 189 194C187.992 180.664 167.546 185 158 185C154.205 185 149.516 184.327 146.044 186.179C140.757 188.999 141.949 196.1 136.891 198.806C133.19 200.787 127.217 199.229 123 200M214 190L215 191L214 190M378 190L379 191L378 190M379 193C376.56 201.41 366.042 199 359 199C364.925 210.145 387.027 208.098 379 193M215 196C210.156 200.538 202.243 199 196 199C199.904 210.143 222.131 206.637 215 196M311 256C306.439 264.533 310 283.175 310 293C310 296.839 311.22 303.366 308.397 306.44C306.049 308.996 301.193 309.922 298 311L298 259L297 259C297 274.032 300.309 293.436 296.682 308C295.546 312.562 291.26 315.401 289.993 320C287.817 327.9 291.509 334.517 284 340C283.989 323.32 277.457 331.584 267 332L267 338L271 337C272.674 341.754 275.205 342.559 280 343C277.443 348.464 275.32 351.793 269 352L269 353L275 353C274.751 356.239 273.041 361.768 269 361L268 361L265 366L265 367C273.047 371.199 279.365 363.492 281 356L284 356C285.139 359.141 287.548 362.533 286.933 366C286.233 369.949 282.409 372.843 282.453 377C282.494 380.89 285.989 383.542 287.262 387C288.903 391.459 286.584 396.202 292 398C287.583 405.154 268.056 401.356 263.858 394.906C260.633 389.951 262.116 382.565 262.251 377C262.449 368.806 261.456 358.434 258 351L257 351C257.313 366.177 255.282 384.299 259.633 399C260.743 402.749 269.353 412.648 267.03 415.968C263.502 421.009 250.994 415.008 247 413C263.819 434.926 306.72 428.373 315.891 402C318.65 394.066 316.459 386.052 317.093 378C318.492 360.243 321.934 339.865 318.772 322C317.698 315.927 312.661 311.075 312.013 304.715C310.526 290.117 316.681 269.538 311 256z"/>
<path style="fill:#0e9edd; stroke:none;" d="M149 260.439C100.925 267.948 69.9802 322.904 89.1543 369C98.7942 392.175 111.353 412.215 138 417.196C143.44 418.213 151.698 419.339 156.985 417.258C166.944 413.336 166.205 399.425 158.896 393.569C151.849 387.923 141.85 391.065 134.17 386.074C111.445 371.304 100.708 337.862 115.533 314C119.988 306.829 125.556 298.303 133.039 293.934C147.903 285.257 170.555 289 187 289C194.281 289 206.399 291.299 212.957 287.821C224.026 281.95 221.103 264.477 209.999 260.703C204.1 258.698 196.17 260 190 260C176.681 260 162.167 258.383 149 260.439z"/>
<path style="fill:#4c7285; stroke:none;" d="M220 272C219.825 279.44 216.401 287.952 208 288.891C184.28 291.543 155.29 282.629 133.039 293.432C112.752 303.282 97.1422 347.636 116 365C114.871 356.11 113.155 348.008 114.424 339C115.318 332.66 117.442 327.752 120.167 322C138.985 282.277 182.549 304.09 214.961 295.695C225.252 293.03 226.308 278.83 220 272z"/>
<path style="fill:#202020; stroke:none;" d="M216.667 289.333L217.333 289.667L216.667 289.333M129 301L139 297L139 295C134.094 294.088 131.228 296.762 129 301M124 305L128 305L128 301L124 305M122 306L121 310L124 306L122 306z"/>
<path style="fill:#4c7285; stroke:none;" d="M231 308L232 313L234 313L235 312L234 308L231 308z"/>
<path style="fill:#0e9edd; stroke:none;" d="M234 308L235 312L236 312L234 308M384 370C381.558 360.275 373.302 352.102 369 343C365.864 336.365 361.942 330.34 358.28 324.001C352.04 313.199 333.214 297.516 328.519 319C323.841 340.399 328 367.077 328 389C328 393.9 325.214 413.894 332.133 414.94C335.97 415.52 340.188 409.998 342.91 407.876C358.723 395.551 359.072 383.555 359.079 365C359.08 362.07 360.037 346.207 363.123 346.207C366.689 346.207 368.67 351.531 370.184 354C373.526 359.455 378.314 366.955 384 370z"/>
<path style="fill:#202020; stroke:none;" d="M268 365L268 367L269 368C276.05 364.858 278.959 360.174 281 353L283 353L288.678 365L284.562 378L291 395C318.483 388.208 315 359.428 315 337C315 332.01 317.189 310.373 309.852 309.644C307.593 309.419 305.13 310.663 303 311.255C287.523 315.55 294.62 324.26 290.436 335.829C288.793 340.371 283.603 342.367 280.789 346.054C275.67 352.763 275.14 359.541 268 365M120 311L117 316L120 311z"/>
<path style="fill:#0e9edd; stroke:none;" d="M234 312L235 313L234 312z"/>
<path style="fill:#4c7285; stroke:none;" d="M177 314L177 329C166.601 329 155.236 330.283 145 328.339C140.001 327.389 132.704 323.834 128.228 327.149C121.269 332.302 131.426 349.955 136.455 354.355C144.257 361.18 154.566 356.084 162.985 359.488C169.67 362.191 168.106 370.915 174.171 374.98C179.86 378.794 185.755 373.99 190.687 377.042C205.877 386.445 187.102 418.747 211 419.96C213.89 420.107 217.144 420.295 219.999 419.772C236.762 416.697 222.616 386.701 221.94 377C221.429 369.668 226.295 363.911 225.695 357C224.959 348.522 216.553 331.077 207.996 328.032C202.164 325.956 185.383 327.819 179 329L179 314L177 314z"/>
<path style="fill:#0e9edd; stroke:none;" d="M246 326L250 315C244.985 316.583 237.908 323.541 246 326z"/>
<path style="fill:#202020; stroke:none;" d="M115 319L114 322L115 319z"/>
<path style="fill:#4c7285; stroke:none;" d="M251 324C251.326 328.278 252.43 330.667 257 330L257 329L254 329L256 324L251 324z"/>
<path style="fill:#0e9edd; stroke:none;" d="M233 325C228.685 331.063 231.148 337.104 230.791 344C229.809 362.967 227.413 384.745 237.633 402C242.271 409.832 255.231 422.261 265.756 417.396C271.707 414.646 261.849 403.676 260.353 400C255.108 387.115 259.043 372.363 257.831 359C257.296 353.101 258.43 346.453 252 344L250 361L248 361L246 352C229.494 355.905 241.99 333.558 233 325M256 325L255 330L256 325z"/>
<path style="fill:#202020; stroke:none;" d="M172 361C176.89 356.084 180.084 360.445 180 366L190 359L189 374C208.595 380.935 187.532 413.678 211 413.996C213.577 414.031 216.396 414.28 218.945 413.852C227.975 412.336 224.028 398.74 222.626 393C220.54 384.465 217.794 375.861 218.015 367C218.147 361.7 221.714 358.742 222.463 353.961C223.417 347.872 214.319 333.039 208.946 330.358C204.784 328.281 198.564 331.074 194 330.985C178.722 330.685 162.232 332.847 147 330.7C142.31 330.039 130.918 324.889 128.047 330.149C126.124 333.673 129.34 336.823 130.42 340C135.932 356.218 146.414 350.132 160 354.35C164.447 355.73 167.551 359.491 172 361z"/>
<path style="fill:#0e9edd; stroke:none;" d="M253 330C242.293 328.004 249.302 343.506 253 330z"/>
<path style="fill:#202020; stroke:none;" d="M273 341C274.892 340.993 277.054 341.213 278.896 340.682C290.035 337.469 275.143 322.643 273.148 334.103C272.762 336.321 273 338.757 273 341z"/>
<path style="fill:#4c7285; stroke:none;" d="M237 335C237 340.795 234.138 358.855 244 352C241.378 347.712 242.933 344.281 245 340L237 335z"/>
<path style="fill:#0e9edd; stroke:none;" d="M243 347C245.941 345.38 246.499 344.314 246 341L243 347z"/>
<path style="fill:#4c7285; stroke:none;" d="M253 343L256 345L253 343M274.333 344.667L274.667 345.333L274.333 344.667z"/>
<path style="fill:#0e9edd; stroke:none;" d="M390 379C391.289 383.745 394.524 388.053 397.665 391.83C399.604 394.162 401.79 396.57 404.171 398.457C408.931 402.229 417.984 404.296 421.547 397.941C426.201 389.641 427.577 363.849 424.08 355C420.929 347.024 412.868 340.585 404 345.028C395.793 349.14 395.001 356.942 395 365C395 370.571 396.38 377.063 390 379z"/>
<path style="fill:#4c7285; stroke:none;" d="M337 421C350.607 416.374 362.671 399.87 363.826 386C364.763 374.757 359.046 362.969 370 355C369.428 352.042 362.095 340.07 360.484 348.149C357.829 361.462 363.392 381.185 356.312 392.996C351.271 401.408 331.179 410.88 337 421M250 348L251 349L250 348z"/>
<path style="fill:#202020; stroke:none;" d="M363 348L363 352L364 352L363 348z"/>
<path style="fill:#4c7285; stroke:none;" d="M425 357C425 367.956 425.416 380.237 423.381 391C422.62 395.028 421.191 399.792 416.957 401.393C412.658 403.019 407.994 400.329 404 399C407.741 407.387 420.539 417.211 426.682 404.985C428.536 401.296 427.818 396.967 428.09 393C428.799 382.649 432.447 365.554 425 357z"/>
<path style="fill:#e0e6eb; stroke:none;" d="M172 366C175.499 374.529 188.976 376.378 188 365L172 366z"/>
<path style="fill:#0e9edd; stroke:none;" d="M385 372L386 376L387 376L385 372z"/>
<path style="fill:#e0e6eb; stroke:none;" d="M312 382L303 393L303 394L308 396L312 382z"/>
<path style="fill:#4c7285; stroke:none;" d="M400 394L401 395L400 394M401.333 395.667L401.667 396.333L401.333 395.667M402 397L403 398L402 397M403 398L404 399L403 398M108 402C114.997 414.071 132.885 425.17 147 425.957C161.797 426.782 174.081 419.076 166 403L165 403C158.332 434.877 123.823 409.237 108 402z"/>
<path style="fill:#202020; stroke:none;" d="M419.667 404.333L420.333 404.667L419.667 404.333z"/>
<path style="fill:#4c7285; stroke:none;" d="M244 410L245 411L244 410z"/>
<path style="fill:#202020; stroke:none;" d="M301 414L305 410L301 414M343 410L341 413L343 410M296 416L299 414L296 416M161 417L162 421L163 417L161 417M288 419L293 419L288 419z"/>
<path style="fill:#ce2d2e; stroke:none;" d="M431 431L428 430L418 437L412 441L384.179 461.47L383 476L383 512L512 512L512 429L450 429C446.275 429 431.636 427.187 431 431z"/>
</svg>
