<?xml version="1.0" standalone="yes"?>
<svg xmlns="http://www.w3.org/2000/svg" width="500" height="530">
<path style="fill:#020102; stroke:none;" d="M0 0L0 530L500 530L500 0L0 0z"/>
<path style="fill:#cf157d; stroke:none;" d="M239 65L239 66L244 66L239 65z"/>
<path style="fill:#e51232; stroke:none;" d="M158 98L158 100L255 151.742L292 171.576L305.682 179.39L308 193L308 223L306.972 235.815L291 246L291 247L308 238L309 238C309.766 241.559 311.867 240.582 315 240L315 241L312 242L312 243C332.719 245.483 350.19 263.038 371 264L371 265L368 266L368 267L378 269L378 270L370 285C380.951 273.303 386.54 253.345 389.789 238C402.126 179.739 376.419 117.256 325 86.2037C287.399 63.4965 240.181 58.8816 199 74.4251C183.839 80.1477 171.384 89.1838 158 98z"/>
<path style="fill:#cf157d; stroke:none;" d="M257 65L257 66L261 66L257 65M230.667 66.3333L231.333 66.6667L230.667 66.3333M268.667 66.3333L269.333 66.6667L268.667 66.3333M224 67L225 68L224 67M275 67L276 68L275 67M219 68L220 69L219 68M280 68L281 69L280 68M214.667 69.3333L215.333 69.6667L214.667 69.3333M285 69L286 70L285 69M211 70L212 71L211 70M288 70L289 71L288 70M207 71L208 72L207 71M292 71L293 72L292 71M204 72L205 73L204 72M295 72L296 73L295 72M298 73L299 74L298 73M196 75L197 76L196 75M303 75L304 76L303 75M189 78L190 79L189 78M310 78L311 79L310 78M187 79L188 80L187 79M312 79L313 80L312 79M185 80L186 81L185 80M314 80L315 81L314 80M183 81L184 82L183 81M316 81L317 82L316 81M318 82L319 83L318 82M176 85L177 86L176 85M323 85L324 86L323 85M173 87L174 88L173 87M328 88L329 89L328 88M331 90L332 91L331 90M167 91L168 92L167 91M164 93L165 94L164 93M335 93L336 94L335 93M339 96L340 97L339 96M159 97L160 98L159 97M340 97L341 98L340 97z"/>
<path style="fill:#999a9a; stroke:none;" d="M157 99L158 100L157 99z"/>
<path style="fill:#fcfcfd; stroke:none;" d="M123 145L250 208C230.76 219.23 209.929 228.283 190 238.247L144 261.247C138.519 263.987 128.52 266.801 124.647 271.637C121.75 275.253 126.523 280.944 128.425 284C134.031 293.006 140.522 301.468 148.004 308.999C150.576 311.588 153.973 316.056 158 316.068C167.688 316.097 182.567 303.87 191 299.309C217.948 284.733 245.203 270.716 272 255.861C280.868 250.945 300.468 245.241 305.972 236.61C308.286 232.981 307 226.131 307 222C307 209.848 309.803 193.776 306.682 182.043C305.234 176.598 297.412 174.585 293 172.139C280.098 164.987 267.046 158.103 254 151.219C230.919 139.04 208.079 126.404 185 114.219C178.044 110.547 165.985 100.433 158 100.708C153.606 100.86 149.823 106.148 147.004 109C137.914 118.195 125.343 131.862 123 145z"/>
<path style="fill:#999a9a; stroke:none;" d="M159 100L160 101L159 100M154 101L155 102L154 101M161 101L162 102L161 101M153 102L154 103L153 102M163 102L164 103L163 102z"/>
<path style="fill:#cf157d; stroke:none;" d="M346 102L347 103L346 102z"/>
<path style="fill:#999a9a; stroke:none;" d="M152 103L153 104L152 103z"/>
<path style="fill:#cf157d; stroke:none;" d="M165 103L166 104L165 103M347 103L348 104L347 103z"/>
<path style="fill:#999a9a; stroke:none;" d="M151 104L152 105L151 104z"/>
<path style="fill:#cf157d; stroke:none;" d="M167 104L168 105L167 104M348 104L349 105L348 104z"/>
<path style="fill:#999a9a; stroke:none;" d="M150 105L151 106L150 105M168 105L169 106L168 105z"/>
<path style="fill:#cf157d; stroke:none;" d="M349 105L350 106L349 105z"/>
<path style="fill:#999a9a; stroke:none;" d="M149 106L150 107L149 106M170 106L171 107L170 106z"/>
<path style="fill:#cf157d; stroke:none;" d="M350 106L351 107L350 106z"/>
<path style="fill:#999a9a; stroke:none;" d="M148 107L149 108L148 107M172 107L173 108L172 107z"/>
<path style="fill:#cf157d; stroke:none;" d="M351 107L352 108L351 107z"/>
<path style="fill:#999a9a; stroke:none;" d="M147 108L148 109L147 108M174 108L175 109L174 108z"/>
<path style="fill:#cf157d; stroke:none;" d="M352 108L353 109L352 108z"/>
<path style="fill:#999a9a; stroke:none;" d="M146 109L147 110L146 109z"/>
<path style="fill:#cf157d; stroke:none;" d="M176 109L177 110L176 109M353 109L354 110L353 109z"/>
<path style="fill:#999a9a; stroke:none;" d="M145 110L146 111L145 110z"/>
<path style="fill:#cf157d; stroke:none;" d="M178 110L179 111L178 110M354 110L355 111L354 110z"/>
<path style="fill:#999a9a; stroke:none;" d="M144 111L145 112L144 111M143 112L144 113L143 112M181 112L182 113L181 112M183 113L184 114L183 113M185 114L186 115L185 114M187 115L188 116L187 115M140 116L141 117L140 116M189 116L190 117L189 116M139 117L140 118L139 117z"/>
<path style="fill:#cf157d; stroke:none;" d="M191 117L192 118L191 117M360 117L361 118L360 117z"/>
<path style="fill:#999a9a; stroke:none;" d="M138 118L139 119L138 118z"/>
<path style="fill:#cf157d; stroke:none;" d="M193 118L194 119L193 118M361 118L362 119L361 118z"/>
<path style="fill:#999a9a; stroke:none;" d="M194 119L195 120L194 119M196 120L197 121L196 120M136 121L137 122L136 121M198 121L199 122L198 121M135 122L136 123L135 122M200 122L201 123L200 122z"/>
<path style="fill:#cf157d; stroke:none;" d="M364 122L365 123L364 122z"/>
<path style="fill:#999a9a; stroke:none;" d="M202 123L203 124L202 123M204 124L205 125L204 124M133 125L134 126L133 125z"/>
<path style="fill:#cf157d; stroke:none;" d="M206 125L207 126L206 125z"/>
<path style="fill:#999a9a; stroke:none;" d="M132 126L133 127L132 126z"/>
<path style="fill:#cf157d; stroke:none;" d="M208 126L209 127L208 126M367 126L368 127L367 126z"/>
<path style="fill:#999a9a; stroke:none;" d="M209 127L210 128L209 127M211 128L212 129L211 128M130 129L131 130L130 129M213 129L214 130L213 129z"/>
<path style="fill:#cf157d; stroke:none;" d="M369 129L370 130L369 129z"/>
<path style="fill:#999a9a; stroke:none;" d="M215 130L216 131L215 130M129 131L130 132L129 131M217 131L218 132L217 131M128 132L129 133L128 132z"/>
<path style="fill:#cf157d; stroke:none;" d="M219 132L220 133L219 132M221 133L222 134L221 133z"/>
<path style="fill:#999a9a; stroke:none;" d="M127 134L128 135L127 134M222 134L223 135L222 134M224 135L225 136L224 135M226 136L227 137L226 136M125 137L126 138L125 137M228 137L229 138L228 137M230 138L231 139L230 138M124 139L125 140L124 139z"/>
<path style="fill:#cf157d; stroke:none;" d="M232 139L233 140L232 139M375 139L376 140L375 139M234 140L235 141L234 140z"/>
<path style="fill:#999a9a; stroke:none;" d="M123 141L124 142L123 141z"/>
<path style="fill:#cf157d; stroke:none;" d="M236 141L237 142L236 141M376 141L377 142L376 141z"/>
<path style="fill:#999a9a; stroke:none;" d="M237 142L238 143L237 142M122.333 143.667L122.667 144.333L122.333 143.667M239 143L240 144L239 143M241 144L242 145L241 144z"/>
<path style="fill:#cf157d; stroke:none;" d="M121 145L122 146L121 145z"/>
<path style="fill:#e51232; stroke:none;" d="M122 145L112 173L113 173L117 159C123.81 162.225 136.643 169.125 144 168C146.742 172.137 152.655 173.103 157 175.248C169.8 181.566 187.639 191.614 202 192L202 193L200 195L226 205L233 210L237 208L236 210L239 209L240 211L240 212L225 219L225 220L249 209L200 183.753L122 145z"/>
<path style="fill:#cf157d; stroke:none;" d="M123 145L124 146L123 145z"/>
<path style="fill:#999a9a; stroke:none;" d="M124 145L125 146L124 145M243 145L244 146L243 145M126 146L127 147L126 146M245 146L246 147L245 146z"/>
<path style="fill:#cf157d; stroke:none;" d="M120 147L121 148L120 147z"/>
<path style="fill:#999a9a; stroke:none;" d="M128 147L129 148L128 147z"/>
<path style="fill:#cf157d; stroke:none;" d="M247 147L248 148L247 147M379 147L380 148L379 147M129 148L130 149L129 148z"/>
<path style="fill:#999a9a; stroke:none;" d="M130 148L131 149L130 148z"/>
<path style="fill:#cf157d; stroke:none;" d="M249 148L250 149L249 148M119 149L120 150L119 149z"/>
<path style="fill:#999a9a; stroke:none;" d="M132 149L133 150L132 149M250 149L251 150L250 149z"/>
<path style="fill:#cf157d; stroke:none;" d="M380 149L381 150L380 149z"/>
<path style="fill:#999a9a; stroke:none;" d="M134 150L135 151L134 150M252 150L253 151L252 150M136 151L137 152L136 151M254 151L255 152L254 151z"/>
<path style="fill:#cf157d; stroke:none;" d="M118 152L119 153L118 152z"/>
<path style="fill:#999a9a; stroke:none;" d="M138 152L139 153L138 152M256 152L257 153L256 152z"/>
<path style="fill:#cf157d; stroke:none;" d="M139 153L140 154L139 153z"/>
<path style="fill:#999a9a; stroke:none;" d="M140 153L141 154L140 153M258 153L259 154L258 153z"/>
<path style="fill:#cf157d; stroke:none;" d="M117 154L118 155L117 154z"/>
<path style="fill:#999a9a; stroke:none;" d="M142 154L143 155L142 154M260 154L261 155L260 154M144 155L145 156L144 155z"/>
<path style="fill:#cf157d; stroke:none;" d="M262 155L263 156L262 155z"/>
<path style="fill:#999a9a; stroke:none;" d="M146 156L147 157L146 156z"/>
<path style="fill:#cf157d; stroke:none;" d="M264 156L265 157L264 156M383 156L384 157L383 156M116 157L117 158L116 157M119.333 157.667L119.667 158.333L119.333 157.667z"/>
<path style="fill:#999a9a; stroke:none;" d="M148 157L149 158L148 157M265 157L266 158L265 157M150 158L151 159L150 158M267 158L268 159L267 158z"/>
<path style="fill:#cf157d; stroke:none;" d="M115.333 159.667L115.667 160.333L115.333 159.667M117 159L111 172L112 178L111 178L111 176L110 176L111 182C106.604 182.728 107 199.846 107 204C107 227.009 110.003 251.791 122 272L226 221L225 219L240 212L236 210L237 208L236 208L233 210C231.359 202.692 207.092 195.364 200 195L202 193L202 192C187.789 191.007 170.713 181.522 158 175.248C153.259 172.908 147.778 171.774 144 168L117 159M151 159L152 160L151 159z"/>
<path style="fill:#999a9a; stroke:none;" d="M152 159L153 160L152 159M269 159L270 160L269 159z"/>
<path style="fill:#cf157d; stroke:none;" d="M384 159L385 160L384 159M153 160L154 161L153 160z"/>
<path style="fill:#999a9a; stroke:none;" d="M154 160L155 161L154 160M271 160L272 161L271 160z"/>
<path style="fill:#cf157d; stroke:none;" d="M155 161L156 162L155 161z"/>
<path style="fill:#999a9a; stroke:none;" d="M156 161L157 162L156 161z"/>
<path style="fill:#cf157d; stroke:none;" d="M273 161L274 162L273 161M114.333 162.667L114.667 163.333L114.333 162.667M157 162L158 163L157 162z"/>
<path style="fill:#999a9a; stroke:none;" d="M158 162L159 163L158 162z"/>
<path style="fill:#cf157d; stroke:none;" d="M275 162L276 163L275 162M385 162L386 163L385 162M159 163L160 164L159 163z"/>
<path style="fill:#999a9a; stroke:none;" d="M160 163L161 164L160 163z"/>
<path style="fill:#cf157d; stroke:none;" d="M161 164L162 165L161 164z"/>
<path style="fill:#999a9a; stroke:none;" d="M162 164L163 165L162 164M278 164L279 165L278 164z"/>
<path style="fill:#cf157d; stroke:none;" d="M113.333 165.667L113.667 166.333L113.333 165.667M163 165L164 166L163 165z"/>
<path style="fill:#999a9a; stroke:none;" d="M164 165L165 166L164 165M280 165L281 166L280 165z"/>
<path style="fill:#cf157d; stroke:none;" d="M386 165L387 166L386 165M165 166L166 167L165 166z"/>
<path style="fill:#999a9a; stroke:none;" d="M166 166L167 167L166 166M282 166L283 167L282 166z"/>
<path style="fill:#cf157d; stroke:none;" d="M167 167L168 168L167 167z"/>
<path style="fill:#999a9a; stroke:none;" d="M168 167L169 168L168 167M284 167L285 168L284 167z"/>
<path style="fill:#cf157d; stroke:none;" d="M169 168L170 169L169 168z"/>
<path style="fill:#999a9a; stroke:none;" d="M170 168L171 169L170 168M286 168L287 169L286 168z"/>
<path style="fill:#cf157d; stroke:none;" d="M387 168L388 169L387 168M112.333 169.667L112.667 170.333L112.333 169.667M171 169L172 170L171 169z"/>
<path style="fill:#999a9a; stroke:none;" d="M172 169L173 170L172 169z"/>
<path style="fill:#cf157d; stroke:none;" d="M288 169L289 170L288 169M173 170L174 171L173 170z"/>
<path style="fill:#999a9a; stroke:none;" d="M174 170L175 171L174 170z"/>
<path style="fill:#cf157d; stroke:none;" d="M290 170L291 171L290 170M175 171L176 172L175 171z"/>
<path style="fill:#999a9a; stroke:none;" d="M176 171L177 172L176 171M291 171L292 172L291 171z"/>
<path style="fill:#cf157d; stroke:none;" d="M177 172L178 173L177 172z"/>
<path style="fill:#999a9a; stroke:none;" d="M178 172L179 173L178 172M293 172L294 173L293 172z"/>
<path style="fill:#cf157d; stroke:none;" d="M388 172L389 173L388 172M179 173L180 174L179 173z"/>
<path style="fill:#999a9a; stroke:none;" d="M180 173L181 174L180 173M295 173L296 174L295 173z"/>
<path style="fill:#cf157d; stroke:none;" d="M169 174L170 175L169 174M181 174L182 175L181 174z"/>
<path style="fill:#999a9a; stroke:none;" d="M182 174L183 175L182 174M297 174L298 175L297 174z"/>
<path style="fill:#e51232; stroke:none;" d="M111 175L111 178L112 178L111 175z"/>
<path style="fill:#cf157d; stroke:none;" d="M183 175L184 176L183 175z"/>
<path style="fill:#999a9a; stroke:none;" d="M184 175L185 176L184 175M299 175L300 176L299 175z"/>
<path style="fill:#cf157d; stroke:none;" d="M185 176L186 177L185 176z"/>
<path style="fill:#999a9a; stroke:none;" d="M186 176L187 177L186 176z"/>
<path style="fill:#cf157d; stroke:none;" d="M301 176L302 177L301 176M389 176L390 177L389 176M187 177L188 178L187 177z"/>
<path style="fill:#999a9a; stroke:none;" d="M188 177L189 178L188 177z"/>
<path style="fill:#cf157d; stroke:none;" d="M303 177L304 178L303 177M189 178L190 179L189 178z"/>
<path style="fill:#999a9a; stroke:none;" d="M190 178L191 179L190 178z"/>
<path style="fill:#cf157d; stroke:none;" d="M305 178L306 179L305 178M191 179L192 180L191 179z"/>
<path style="fill:#999a9a; stroke:none;" d="M192 179L193 180L192 179M306 179L307 180L306 179z"/>
<path style="fill:#e51232; stroke:none;" d="M110.333 180.667L110.667 181.333L110.333 180.667z"/>
<path style="fill:#cf157d; stroke:none;" d="M193 180L194 181L193 180z"/>
<path style="fill:#999a9a; stroke:none;" d="M194 180L195 181L194 180z"/>
<path style="fill:#cf157d; stroke:none;" d="M307 180L307 237L308 237L308 198L307 180M195 181L196 182L195 181z"/>
<path style="fill:#999a9a; stroke:none;" d="M196 181L197 182L196 181z"/>
<path style="fill:#cf157d; stroke:none;" d="M390 181L391 182L390 181M197 182L198 183L197 182z"/>
<path style="fill:#999a9a; stroke:none;" d="M198 182L199 183L198 182z"/>
<path style="fill:#cf157d; stroke:none;" d="M181 183L182 184L181 183M199 183L200 184L199 183z"/>
<path style="fill:#999a9a; stroke:none;" d="M200 183L201 184L200 183z"/>
<path style="fill:#cf157d; stroke:none;" d="M201 184L202 185L201 184z"/>
<path style="fill:#999a9a; stroke:none;" d="M202 184L203 185L202 184z"/>
<path style="fill:#cf157d; stroke:none;" d="M203 185L204 186L203 185z"/>
<path style="fill:#999a9a; stroke:none;" d="M204 185L205 186L204 185z"/>
<path style="fill:#cf157d; stroke:none;" d="M205 186L206 187L205 186z"/>
<path style="fill:#999a9a; stroke:none;" d="M206 186L207 187L206 186z"/>
<path style="fill:#cf157d; stroke:none;" d="M391.333 186.667L391.667 187.333L391.333 186.667M207 187L208 188L207 187z"/>
<path style="fill:#999a9a; stroke:none;" d="M208 187L209 188L208 187z"/>
<path style="fill:#cf157d; stroke:none;" d="M209 188L210 189L209 188z"/>
<path style="fill:#999a9a; stroke:none;" d="M210 188L211 189L210 188z"/>
<path style="fill:#cf157d; stroke:none;" d="M195 189L196 190L195 189M203 189L204 190L203 189M211 189L212 190L211 189z"/>
<path style="fill:#999a9a; stroke:none;" d="M212 189L213 190L212 189z"/>
<path style="fill:#cf157d; stroke:none;" d="M213 190L214 191L213 190z"/>
<path style="fill:#999a9a; stroke:none;" d="M214 190L215 191L214 190z"/>
<path style="fill:#cf157d; stroke:none;" d="M215 191L216 192L215 191z"/>
<path style="fill:#999a9a; stroke:none;" d="M216 191L217 192L216 191z"/>
<path style="fill:#cf157d; stroke:none;" d="M217 192L218 193L217 192z"/>
<path style="fill:#999a9a; stroke:none;" d="M218 192L219 193L218 192z"/>
<path style="fill:#cf157d; stroke:none;" d="M219 193L220 194L219 193z"/>
<path style="fill:#999a9a; stroke:none;" d="M220 193L221 194L220 193z"/>
<path style="fill:#cf157d; stroke:none;" d="M221 194L222 195L221 194z"/>
<path style="fill:#999a9a; stroke:none;" d="M222 194L223 195L222 194z"/>
<path style="fill:#cf157d; stroke:none;" d="M223 195L224 196L223 195z"/>
<path style="fill:#999a9a; stroke:none;" d="M224 195L225 196L224 195z"/>
<path style="fill:#cf157d; stroke:none;" d="M392.333 195.667L392.667 196.333L392.333 195.667M225 196L226 197L225 196z"/>
<path style="fill:#999a9a; stroke:none;" d="M226 196L227 197L226 196z"/>
<path style="fill:#cf157d; stroke:none;" d="M227 197L228 198L227 197z"/>
<path style="fill:#999a9a; stroke:none;" d="M228 197L229 198L228 197z"/>
<path style="fill:#cf157d; stroke:none;" d="M216 198L218 200L216 198M220 198L221 199L220 198M229 198L230 199L229 198z"/>
<path style="fill:#999a9a; stroke:none;" d="M230 198L231 199L230 198z"/>
<path style="fill:#e51232; stroke:none;" d="M208 199L209 200L208 199z"/>
<path style="fill:#cf157d; stroke:none;" d="M231 199L232 200L231 199z"/>
<path style="fill:#999a9a; stroke:none;" d="M232 199L233 200L232 199z"/>
<path style="fill:#cf157d; stroke:none;" d="M229 200L230 201L229 200M233 200L234 201L233 200z"/>
<path style="fill:#999a9a; stroke:none;" d="M234 200L235 201L234 200z"/>
<path style="fill:#cf157d; stroke:none;" d="M235 201L236 202L235 201z"/>
<path style="fill:#999a9a; stroke:none;" d="M236 201L237 202L236 201z"/>
<path style="fill:#cf157d; stroke:none;" d="M237 202L238 203L237 202z"/>
<path style="fill:#999a9a; stroke:none;" d="M238 202L239 203L238 202z"/>
<path style="fill:#cf157d; stroke:none;" d="M239 203L240 204L239 203z"/>
<path style="fill:#999a9a; stroke:none;" d="M240 203L241 204L240 203z"/>
<path style="fill:#cf157d; stroke:none;" d="M241 204L242 205L241 204z"/>
<path style="fill:#999a9a; stroke:none;" d="M242 204L243 205L242 204z"/>
<path style="fill:#cf157d; stroke:none;" d="M243 205L244 206L243 205z"/>
<path style="fill:#999a9a; stroke:none;" d="M244 205L245 206L244 205z"/>
<path style="fill:#cf157d; stroke:none;" d="M233 206L234 207L233 206M245 206L246 207L245 206z"/>
<path style="fill:#999a9a; stroke:none;" d="M246 206L247 207L246 206z"/>
<path style="fill:#cf157d; stroke:none;" d="M238 207L239 208L238 207M240.333 207.667L240.667 208.333L240.333 207.667M247 207L248 208L247 207z"/>
<path style="fill:#999a9a; stroke:none;" d="M248 207L249 208L248 207z"/>
<path style="fill:#cf157d; stroke:none;" d="M245 208L246 209L245 208z"/>
<path style="fill:#999a9a; stroke:none;" d="M249 208L250 209L249 208z"/>
<path style="fill:#cf157d; stroke:none;" d="M247 209L248 210L247 209M240 210L241 211L240 210M245 210L246 211L245 210M243 211L244 212L243 211M241 212L242 213L241 212M239 213L240 214L239 213M237 214L238 215L237 214M235 215L236 216L235 215M233 216L234 217L233 216M231 217L232 218L231 217M229 218L230 219L229 218M227 219L228 220L227 219M392 219L392 222L393 222L392 219z"/>
<path style="fill:#e51232; stroke:none;" d="M223 220L224 221L223 220M221 221L222 222L221 221M219 222L220 223L219 222M217 223L218 224L217 223M215 224L216 225L215 224M211 226L212 227L211 226z"/>
<path style="fill:#cf157d; stroke:none;" d="M391.333 228.667L391.667 229.333L391.333 228.667M390.333 234.667L390.667 235.333L390.333 234.667z"/>
<path style="fill:#999a9a; stroke:none;" d="M306 237L307 238L306 237M304 238L305 239L304 238z"/>
<path style="fill:#cf157d; stroke:none;" d="M308 238L290 246L288 247L288 249L286 248L286 250L279 254L277 255C265.529 254.914 248.978 267.952 239 273.576C212.335 288.606 184.431 301.573 158 317L158 319C173.266 329.056 187.437 338.795 205 344.645C251.616 360.172 307.231 349.922 344 316.829C359.703 302.696 367.65 287.733 378 270L378 269L368 267L368 266L371 265L371 264C350.279 262.136 332.886 244.169 312 243L312 242L315 241L315 240L308 238z"/>
<path style="fill:#999a9a; stroke:none;" d="M302 239L303 240L302 239z"/>
<path style="fill:#cf157d; stroke:none;" d="M303 239L304 240L303 239M389.333 239.667L389.667 240.333L389.333 239.667z"/>
<path style="fill:#999a9a; stroke:none;" d="M300 240L301 241L300 240z"/>
<path style="fill:#cf157d; stroke:none;" d="M301 240L302 241L301 240z"/>
<path style="fill:#999a9a; stroke:none;" d="M298 241L299 242L298 241z"/>
<path style="fill:#cf157d; stroke:none;" d="M299 241L300 242L299 241M297 242L298 243L297 242M295 243L296 244L295 243M388.333 243.667L388.667 244.333L388.333 243.667z"/>
<path style="fill:#999a9a; stroke:none;" d="M293 244L294 245L293 244M291 245L292 246L291 245z"/>
<path style="fill:#cf157d; stroke:none;" d="M292 245L293 246L292 245z"/>
<path style="fill:#999a9a; stroke:none;" d="M289 246L290 247L289 246M287 247L288 248L287 247z"/>
<path style="fill:#e51232; stroke:none;" d="M289 247L290 248L289 247z"/>
<path style="fill:#cf157d; stroke:none;" d="M387 247L388 248L387 247z"/>
<path style="fill:#999a9a; stroke:none;" d="M285 248L286 249L285 248z"/>
<path style="fill:#e51232; stroke:none;" d="M287 248L288 249L287 248M285 249L286 250L285 249M284 250L285 251L284 250z"/>
<path style="fill:#cf157d; stroke:none;" d="M386.333 250.667L386.667 251.333L386.333 250.667z"/>
<path style="fill:#e51232; stroke:none;" d="M282 251L283 252L282 251z"/>
<path style="fill:#999a9a; stroke:none;" d="M278 252L279 253L278 252M276 253L277 254L276 253z"/>
<path style="fill:#e51232; stroke:none;" d="M278 253L279 254L278 253z"/>
<path style="fill:#999a9a; stroke:none;" d="M274 254L275 255L274 254z"/>
<path style="fill:#e51232; stroke:none;" d="M276 254L277 255L276 254z"/>
<path style="fill:#cf157d; stroke:none;" d="M385 254L386 255L385 254z"/>
<path style="fill:#999a9a; stroke:none;" d="M155 255L156 256L155 255M272 255L273 256L272 255M153 256L154 257L153 256M270 256L271 257L270 256z"/>
<path style="fill:#cf157d; stroke:none;" d="M384.333 256.667L384.667 257.333L384.333 256.667z"/>
<path style="fill:#999a9a; stroke:none;" d="M151 257L152 258L151 257M149 258L150 259L149 258M147 259L148 260L147 259M265 259L266 260L265 259z"/>
<path style="fill:#cf157d; stroke:none;" d="M383 259L384 260L383 259z"/>
<path style="fill:#999a9a; stroke:none;" d="M145 260L146 261L145 260M263 260L264 261L263 260M143 261L144 262L143 261M261 261L262 262L261 261M259 262L260 263L259 262z"/>
<path style="fill:#cf157d; stroke:none;" d="M382 262L383 263L382 262z"/>
<path style="fill:#999a9a; stroke:none;" d="M139 263L140 264L139 263M257 263L258 264L257 263M137 264L138 265L137 264z"/>
<path style="fill:#cf157d; stroke:none;" d="M378 264L379 265L378 264M381 264L382 265L381 264z"/>
<path style="fill:#999a9a; stroke:none;" d="M252 266L253 267L252 266z"/>
<path style="fill:#cf157d; stroke:none;" d="M380 266L381 267L380 266z"/>
<path style="fill:#999a9a; stroke:none;" d="M250 267L251 268L250 267z"/>
<path style="fill:#cf157d; stroke:none;" d="M377 267L378 268L377 267z"/>
<path style="fill:#999a9a; stroke:none;" d="M129 268L130 269L129 268M248 268L249 269L248 268z"/>
<path style="fill:#cf157d; stroke:none;" d="M379.333 268.667L379.667 269.333L379.333 268.667z"/>
<path style="fill:#999a9a; stroke:none;" d="M127 269L128 270L127 269M246 269L247 270L246 269M125 270L126 271L125 270M244 270L245 271L244 270M123 271L124 272L123 271z"/>
<path style="fill:#cf157d; stroke:none;" d="M378 271L379 272L378 271z"/>
<path style="fill:#999a9a; stroke:none;" d="M122.333 272.667L122.667 273.333L122.333 272.667M239 273L240 274L239 273z"/>
<path style="fill:#cf157d; stroke:none;" d="M377 273L378 274L377 273z"/>
<path style="fill:#999a9a; stroke:none;" d="M237 274L238 275L237 274z"/>
<path style="fill:#cf157d; stroke:none;" d="M376.333 274.667L376.667 275.333L376.333 274.667z"/>
<path style="fill:#999a9a; stroke:none;" d="M123 275L124 276L123 275M235 275L236 276L235 275M233 276L234 277L233 276z"/>
<path style="fill:#cf157d; stroke:none;" d="M375 276L376 277L375 276z"/>
<path style="fill:#999a9a; stroke:none;" d="M124 277L125 278L124 277M231 277L232 278L231 277M229 278L230 279L229 278z"/>
<path style="fill:#cf157d; stroke:none;" d="M374 278L375 279L374 278z"/>
<path style="fill:#999a9a; stroke:none;" d="M126 280L127 281L126 280M226 280L227 281L226 280z"/>
<path style="fill:#cf157d; stroke:none;" d="M373 280L374 281L373 280z"/>
<path style="fill:#999a9a; stroke:none;" d="M224 281L225 282L224 281M127 282L128 283L127 282M222 282L223 283L222 282z"/>
<path style="fill:#cf157d; stroke:none;" d="M372 282L373 283L372 282z"/>
<path style="fill:#999a9a; stroke:none;" d="M220 283L221 284L220 283z"/>
<path style="fill:#cf157d; stroke:none;" d="M371 283L372 284L371 283z"/>
<path style="fill:#999a9a; stroke:none;" d="M218 284L219 285L218 284M129 285L130 286L129 285M216 285L217 286L216 285M131 288L132 289L131 288M211 288L212 289L211 288M209 289L210 290L209 289M207 290L208 291L207 290M133 291L134 292L133 291M205 291L206 292L205 291M203 292L204 293L203 292z"/>
<path style="fill:#e51232; stroke:none;" d="M364 292L365 293L364 292z"/>
<path style="fill:#999a9a; stroke:none;" d="M201 293L202 294L201 293M135 294L136 295L135 294M136 295L137 296L136 295M198 295L199 296L198 295M196 296L197 297L196 296M194 297L195 298L194 297M192 298L193 299L192 298M139 299L140 300L139 299M190 299L191 300L190 299M140 300L141 301L140 300M188 300L189 301L188 300M141 301L142 302L141 301M185 302L186 303L185 302M183 303L184 304L183 303M181 304L182 305L181 304M179 305L180 306L179 305M177 306L178 307L177 306M146 307L147 308L146 307M175 307L176 308L175 307M147 308L148 309L147 308M148 309L149 310L148 309M172 309L173 310L172 309M149 310L150 311L149 310M170 310L171 311L170 310M150 311L151 312L150 311M168 311L169 312L168 311M151 312L152 313L151 312M166 312L167 313L166 312M164 313L165 314L164 313M162 314L163 315L162 314M160 315L161 316L160 315M156 316L157 317L156 316M157 317L158 318L157 317M134 378L135 379L134 378z"/>
<path style="fill:#fcfcfd; stroke:none;" d="M135.044 378.758C126.349 382.011 131.249 395.145 139.956 392.066C148.723 388.966 143.61 375.552 135.044 378.758z"/>
<path style="fill:#999a9a; stroke:none;" d="M140 378L141 379L140 378M132 379L133 380L132 379M142 379L143 380L142 379M131 380L132 381L131 380M143 380L144 381L143 380M294 380L294 465L295 465L295 381L306 381L294 380z"/>
<path style="fill:#fcfcfd; stroke:none;" d="M295 381L295 465L306 465L305 413L306 381L295 381z"/>
<path style="fill:#999a9a; stroke:none;" d="M130 382L131 383L130 382M144 382L145 383L144 382M305 382L305 462L306 462L306 407L305 382M130 388L131 389L130 388M144 388L145 389L144 388M134.667 392.333L135.333 392.667L134.667 392.333M139.667 392.333L140.333 392.667L139.667 392.333M173 398L173 399L176 399L173 398z"/>
<path style="fill:#fcfcfd; stroke:none;" d="M157 406L160 415C169.324 411.472 177.425 405.048 188 408.533C191.744 409.767 200.575 416.624 196.353 421.262C193.874 423.984 187.425 424.266 184 425C173.945 427.154 158.785 429.242 154.228 440.004C142.273 468.239 183.58 470.752 198 457L198 465L209 465C209 441.733 217.53 399.467 184 398.039C179.931 397.866 175.96 398.304 172 399.236C166.473 400.538 161.715 402.893 157 406z"/>
<path style="fill:#999a9a; stroke:none;" d="M188 398L188 399L191 399L188 398M247.667 398.333L248.333 398.667L247.667 398.333z"/>
<path style="fill:#fcfcfd; stroke:none;" d="M231 409L231 400L221 400L221 484L232 484L231 457C236.394 460.673 241.249 464.972 248 465.815C254.218 466.591 261.172 466.3 267 463.906C300.3 450.226 284.148 387.341 246 399.221C239.85 401.136 235.758 404.936 231 409z"/>
<path style="fill:#999a9a; stroke:none;" d="M260 398L260 399L263 399L260 398M336 398L336 399L339 399L336 398z"/>
<path style="fill:#fcfcfd; stroke:none;" d="M323 415C331.926 410.832 340.714 404.949 351 408.613C354.69 409.928 363.409 416.549 359.303 421.262C356.92 423.996 350.362 424.28 347 425C336.987 427.145 321.493 429.248 317.005 440.001C305.114 468.496 346.467 470.779 361 457L361 465L371 465C371 449.093 377.584 414.624 363.907 403.557C353.529 395.161 313.844 395.273 323 415z"/>
<path style="fill:#999a9a; stroke:none;" d="M351 398L351 399L354 399L351 398M62 399L62 400L74 400L62 399M113 399L113 400L126 400L113 399M132 399L132 400L143 400L132 399M169.667 399.333L170.333 399.667L169.667 399.333M193.667 399.333L194.333 399.667L193.667 399.333M220 399L220 484L221 484L221 400L231 400L220 399M244 399L245 400L244 399M264.667 399.333L265.333 399.667L264.667 399.333M332.667 399.333L333.333 399.667L332.667 399.333M356 399L357 400L356 399M375 401L387 400C383.479 398.522 377.661 397.955 375 401M426 400L426 401L438 400L426 400z"/>
<path style="fill:#fcfcfd; stroke:none;" d="M62 400C67.5796 416.493 74.1834 432.813 80.6011 449C82.3418 453.391 83.9894 463.206 89.1327 464.682C100.123 467.835 102.409 459.324 105.576 451C112.029 434.035 119.374 417.26 125 400L113 400L95 453C86.6954 444.711 83.2157 426.05 79.3434 415C77.9926 411.146 76.6979 403.577 73.2978 401.028C70.5866 398.995 65.2026 400 62 400M132 400L132 465L143 465L143 400L132 400z"/>
<path style="fill:#999a9a; stroke:none;" d="M166.667 400.333L167.333 400.667L166.667 400.333M196 400L197 401L196 400M231 400L233 409L231 400M241.667 400.333L242.333 400.667L241.667 400.333M267 400L268 401L267 400M329.667 400.333L330.333 400.667L329.667 400.333M358.667 400.333L359.333 400.667L358.667 400.333z"/>
<path style="fill:#fcfcfd; stroke:none;" d="M376 400C380.46 416.341 388.116 432.135 394.05 448C395.778 452.62 401.28 461.038 399.644 465.996C397.584 472.237 389.325 474.625 384 477L387 486C409.149 478.793 413.609 462.992 421.6 443C427.268 428.821 433.268 414.517 438 400L427.419 401.028L420.657 416L407 452L388 400L376 400z"/>
<path style="fill:#999a9a; stroke:none;" d="M62 401L63 402L62 401M74 401L75 402L74 401M124.333 401.667L124.667 402.333L124.333 401.667M164 401L165 402L164 401M198 401L199 402L198 401M240 401L241 402L240 401M269 401L270 402L269 401M327 401L328 402L327 401M437 401L438 402L437 401M112 402L113 403L112 402M162 402L163 403L162 402M199 402L200 403L199 402M238 402L239 403L238 402M271 402L272 403L271 402M325 402L326 403L325 402M362 402L363 403L362 402M376 402L377 403L376 402M388 402L389 403L388 402M425 402L426 403L425 402M160 403L161 404L160 403M201 403L202 404L201 403M272 403L273 404L272 403M323 403L324 404L323 403M63 404L64 405L63 404M75 404L76 405L75 404M111.333 404.667L111.667 405.333L111.333 404.667M123 404L124 405L123 404M159 404L160 405L159 404M202 404L203 405L202 404M377.333 404.667L377.667 405.333L377.333 404.667M389.333 404.667L389.667 405.333L389.333 404.667M436 404L437 405L436 404M157 405L158 406L157 405M203 405L204 406L203 405M320 405L321 406L320 405M424 405L425 406L424 405M64.3333 406.667L64.6667 407.333L64.3333 406.667M319.333 406.667L319.667 407.333L319.333 406.667M76 407L77 408L76 407M110 407L111 408L110 407M122 407L123 408L122 407M179 407L179 408L184 408L179 407M342 407L342 408L347 408L342 407M367 407L368 408L367 407M378 407L379 408L378 407M390 407L391 408L390 407M423.333 407.667L423.667 408.333L423.333 407.667M435 407L436 408L435 407M157 408L158 409L157 408M174.667 408.333L175.333 408.667L174.667 408.333M187.667 408.333L188.333 408.667L187.667 408.333M205 408L206 409L205 408M246.667 408.333L247.333 408.667L246.667 408.333z"/>
<path style="fill:#020102; stroke:none;" d="M248 408.529C221.4 414.668 228.906 461.948 258 455.61C283.152 450.13 275.927 402.084 248 408.529z"/>
<path style="fill:#999a9a; stroke:none;" d="M257.667 408.333L258.333 408.667L257.667 408.333M277 408L278 409L277 408M336 408L336 409L339 409L336 408M350.667 408.333L351.333 408.667L350.667 408.333M368 408L369 409L368 408M65 409L66 410L65 409M77 409L78 410L77 409M121 409L122 410L121 409M171 409L172 410L171 409M190.667 409.333L191.333 409.667L190.667 409.333M244 409L245 410L244 409M261 409L262 410L261 409M278 409L279 410L278 409M320 409L321 410L320 409M333.667 409.333L334.333 409.667L333.667 409.333M353 409L354 410L353 409M434 409L435 410L434 409M109 410L110 411L109 410M168 410L169 411L168 410M192 410L193 411L192 410M206 410L207 411L206 410M242 410L243 411L242 410M263 410L264 411L263 410M331 410L332 411L331 410M355 410L356 411L355 410M369 410L370 411L369 410M379 410L380 411L379 410M391 410L392 411L391 410M422 410L423 411L422 410M158 411L159 412L158 411M166 411L167 412L166 411M240 411L241 412L240 411M264 411L265 412L264 411M279 411L280 412L279 411M321 411L322 412L321 411M329 411L330 412L329 411M356 411L357 412L356 411M66 412L67 413L66 412M78 412L79 413L78 412M108.333 412.667L108.667 413.333L108.333 412.667M120 412L121 413L120 412M207 412L208 413L207 412M239 412L240 413L239 412M327 412L328 413L327 412M357 412L358 413L357 412M380 412L381 413L380 412M433 412L434 413L433 412M159 413L160 414L159 413M163 413L164 414L163 413M195 413L196 414L195 413M238 413L239 414L238 413M326 413L327 414L326 413M358 413L359 414L358 413M370 413L371 414L370 413M392 413L393 414L392 413M421 413L422 414L421 413M67 414L68 415L67 414M119 414L120 415L119 414M237 414L238 415L237 414M281 414L282 415L281 414M322 414L323 415L322 414M324 414L325 415L324 414M432 414L433 415L432 414M79 415L80 416L79 415M107 415L108 416L107 415M160 415L161 416L160 415M196 415L197 416L196 415M208 415L208 420L209 420L208 415M236 415L237 416L236 415M268 415L269 416L268 415M323 415L324 416L323 415M359 415L360 416L359 415M381 415L382 416L381 415M393 415L394 416L393 415M269 416L270 417L269 416M420 416L421 417L420 416M68 417L69 418L68 417M80.3333 417.667L80.6667 418.333L80.3333 417.667M118 417L119 418L118 417M197 417L197 420L198 420L197 417M282 417L283 418L282 417M371 417L371 465L372 465C372 451.474 376.209 429.414 371 417M382 417L383 418L382 417M431 417L432 418L431 417M106 418L107 419L106 418M234 418L235 419L234 418M270 418L271 419L270 418M360 418L360 422L361 422L360 418M394 418L395 419L394 418M419.333 418.667L419.667 419.333L419.333 418.667M69.3333 419.667L69.6667 420.333L69.3333 419.667M430.333 419.667L430.667 420.333L430.333 419.667M81 420L82 421L81 420M117 420L118 421L117 420M233 420L234 421L233 420M271 420L272 421L271 420M283.333 420.667L283.667 421.333L283.333 420.667M383 420L384 421L383 420M105 421L106 422L105 421M197 421L198 422L197 421M395 421L396 422L395 421M418 421L419 422L418 421M70 422L71 423L70 422M116 422L117 423L116 422M194.667 422.333L195.333 422.667L194.667 422.333M356 422L356 423L359 423L356 422M429 422L430 423L429 422M82 423L83 424L82 423M104 423L105 424L104 423M189.667 423.333L190.333 423.667L189.667 423.333M232.333 423.667L232.667 424.333L232.333 423.667M272.333 423.667L272.667 424.333L272.333 423.667M352.667 423.333L353.333 423.667L352.667 423.333M384 423L385 424L384 423M396 423L397 424L396 423M185.667 424.333L186.333 424.667L185.667 424.333M284 424L284 429L285 429L284 424M347 424L347 425L350 425L347 424M417 424L418 425L417 424M71 425L72 426L71 425M83.3333 425.667L83.6667 426.333L83.3333 425.667M115 425L116 426L115 425M180.667 425.333L181.333 425.667L180.667 425.333M343.667 425.333L344.333 425.667L343.667 425.333M385 425L386 426L385 425M428 425L429 426L428 425M103 426L104 427L103 426M176.667 426.333L177.333 426.667L176.667 426.333M338 426L338 427L341 427L338 426M397 426L398 427L397 426M416.333 426.667L416.667 427.333L416.333 426.667M72 427L73 428L72 427M114 427L115 428L114 427M172.667 427.333L173.333 427.667L172.667 427.333M335.667 427.333L336.333 427.667L335.667 427.333M427 427L428 428L427 427M84 428L85 429L84 428M169 428L170 429L169 428M231 428L231 437L232 437L231 428M273 428L273 436L274 436L273 428M331.667 428.333L332.333 428.667L331.667 428.333M386 428L387 429L386 428M102 429L103 430L102 429M166 429L167 430L166 429M329 429L330 430L329 429M398 429L399 430L398 429M415 429L416 430L415 429M73 430L74 431L73 430M113 430L114 431L113 430M164 430L165 431L164 430M327 430L328 431L327 430M387.333 430.667L387.667 431.333L387.333 430.667M426 430L427 431L426 430M85 431L86 432L85 431M101.333 431.667L101.667 432.333L101.333 431.667M162 431L163 432L162 431M195 431L195 432L198 432L195 431M325 431L326 432L325 431M357.667 431.333L358.333 431.667L357.667 431.333z"/>
<path style="fill:#020102; stroke:none;" d="M359 431C353.485 433.081 347.657 433.832 342 435.428C339.315 436.186 336.531 436.992 334.004 438.188C328.037 441.013 323.854 449.265 330.228 454.272C340.834 462.605 358.821 453.675 359.906 441C360.192 437.658 360.294 434.083 359 431z"/>
<path style="fill:#999a9a; stroke:none;" d="M360 431L360 441L361 441L360 431M399.333 431.667L399.667 432.333L399.333 431.667M160 432L161 433L160 432M190.667 432.333L191.333 432.667L190.667 432.333z"/>
<path style="fill:#020102; stroke:none;" d="M198 432C193.148 432.101 188.69 433.201 184 434.373C179.973 435.38 175.821 436.212 172.001 437.88C165.805 440.585 160.239 448.63 167.228 454.121C175.703 460.779 190.964 456.081 195.543 446.999C197.723 442.676 197.902 436.764 198 432z"/>
<path style="fill:#999a9a; stroke:none;" d="M323 432L324 433L323 432M353.667 432.333L354.333 432.667L353.667 432.333M414 432L415 433L414 432M425.333 432.667L425.667 433.333L425.333 432.667M74 433L75 434L74 433M86.3333 433.667L86.6667 434.333L86.3333 433.667M112 433L113 434L112 433M159 433L160 434L159 433M186.667 433.333L187.333 433.667L186.667 433.333M348 433L348 434L351 434L348 433M388 433L389 434L388 433M100 434L101 435L100 434M181 434L181 435L184 435L181 434M320 434L321 435L320 434M344.667 434.333L345.333 434.667L344.667 434.333M400 434L401 435L400 434M75 435L76 436L75 435M111 435L112 436L111 435M178.667 435.333L179.333 435.667L178.667 435.333M284 435L284 440L285 440L284 435M319 435L320 436L319 435M340.667 435.333L341.333 435.667L340.667 435.333M413 435L414 436L413 435M424 435L425 436L424 435M87.3333 436.667L87.6667 437.333L87.3333 436.667M174.667 436.333L175.333 436.667L174.667 436.333M337.667 436.333L338.333 436.667L337.667 436.333M389 436L390 437L389 436M99 437L100 438L99 437M155 437L156 438L155 437M172 437L173 438L172 437M334.667 437.333L335.333 437.667L334.667 437.333M401 437L402 438L401 437M412 437L413 438L412 437M76 438L77 439L76 438M110 438L111 439L110 438M170 438L171 439L170 438M197 438L197 443L198 443L197 438M317 438L318 439L317 438M332 438L333 439L332 438M390 438L391 439L390 438M423 438L424 439L423 438M88 439L89 440L88 439M168 439L169 440L168 439M272.333 439.667L272.667 440.333L272.333 439.667M331 439L332 440L331 439M402.333 439.667L402.667 440.333L402.333 439.667M77 440L78 441L77 440M98 440L99 441L98 440M109 440L110 441L109 440M232.333 440.667L232.667 441.333L232.333 440.667M316 440L317 441L316 440M329 440L330 441L329 440M411 440L412 441L411 440M422 440L423 441L422 440M153 441L154 442L153 441M328 441L329 442L328 441M391 441L392 442L391 441M89 442L90 443L89 442M97.3333 442.667L97.6667 443.333L97.3333 442.667M403 442L404 443L403 442M78 443L79 444L78 443M108 443L109 444L108 443M164 443L165 444L164 443M233 443L234 444L233 443M271 443L272 444L271 443M283.333 443.667L283.667 444.333L283.333 443.667M315 443L315 447L316 447L315 443M327 443L328 444L327 443M392 443L393 444L392 443M410 443L411 444L410 443M421 443L422 444L421 443M152 444L152 451L153 451L152 444M359 444L360 445L359 444M90 445L91 446L90 445M96 445L97 446L96 445M107.333 445.667L107.667 446.333L107.333 445.667M196 445L197 446L196 445M270 445L271 446L270 445M326 445L326 450L327 450L326 445M404 445L405 446L404 445M409.333 445.667L409.667 446.333L409.333 445.667M420 445L421 446L420 445M79 446L80 447L79 446M282.333 446.667L282.667 447.333L282.333 446.667M393 446L394 447L393 446M91.3333 447.667L91.6667 448.333L91.3333 447.667M195 447L196 448L195 447M235 447L236 448L235 447M269 447L270 448L269 447M80 448L81 449L80 448M95 448L96 449L95 448M106 448L107 449L106 448M315 448L315 453L316 453L315 448M357 448L358 449L357 448M405 448L406 449L405 448M408 448L409 449L408 448M419 448L420 449L419 448M194 449L195 450L194 449M281 449L282 450L281 449M394 449L395 450L394 449M92 450L93 451L92 450M193 450L194 451L193 450M237 450L238 451L237 450M356 450L357 451L356 450M418.333 450.667L418.667 451.333L418.333 450.667M81 451L82 452L81 451M94.3333 451.667L94.6667 452.333L94.3333 451.667M105 451L106 452L105 451M164 451L165 452L164 451M192 451L193 452L192 451M238 451L239 452L238 451M266 451L267 452L266 451M280 451L281 452L280 451M327 451L328 452L327 451M355 451L356 452L355 451M395 451L396 452L395 451M406.667 451.333L407.333 451.667L406.667 451.333M191 452L192 453L191 452M354 452L355 453L354 452M82.3333 453.667L82.6667 454.333L82.3333 453.667M104 453L105 454L104 453M190 453L191 454L190 453M241 453L242 454L241 453M263 453L264 454L263 453M328 453L329 454L328 453M417 453L418 454L417 453M153 454L154 455L153 454M167 454L168 455L167 454M188 454L189 455L188 454M243 454L244 455L243 454M261 454L262 455L261 454M278 454L279 455L278 454M316.333 454.667L316.667 455.333L316.333 454.667M351 454L352 455L351 454M396 454L397 455L396 454M168 455L169 456L168 455M186 455L187 456L186 455M245 455L246 456L245 455M259 455L260 456L259 455M331 455L332 456L331 455M349 455L350 456L349 455M83 456L84 457L83 456M103 456L104 457L103 456M154 456L155 457L154 456M171.667 456.333L172.333 456.667L171.667 456.333M182.667 456.333L183.333 456.667L182.667 456.333M248 456L248 457L257 457L248 456M333 456L333 457L336 457L333 456M345.667 456.333L346.333 456.667L345.667 456.333M397 456L398 457L397 456M416 456L417 457L416 456M197 457L198 458L197 457M231 457L232 458L231 457M317 457L318 458L317 457M360 457L361 458L360 457M102.333 458.667L102.667 459.333L102.333 458.667M155 458L156 459L155 458M196 458L197 459L196 458M275 458L276 459L275 458M318 458L319 459L318 458M415 458L416 459L415 458M84 459L85 460L84 459M156 459L157 460L156 459M195 459L196 460L195 459M234 459L235 460L234 459M358 459L359 460L358 459M398 459L399 460L398 459M157 460L158 461L157 460M194 460L195 461L194 460M357 460L358 461L357 460M85 461L86 462L85 461M101 461L102 462L101 461M158 461L159 462L158 461M193 461L194 462L193 461M271 461L272 462L271 461M399.333 461.667L399.667 462.333L399.333 461.667M414 461L415 462L414 461M159 462L160 463L159 462M191 462L192 463L191 462M238 462L239 463L238 462M270 462L271 463L270 462M322 462L323 463L322 462M354 462L355 463L354 462M161 463L162 464L161 463M190 463L191 464L190 463M240 463L241 464L240 463M268 463L269 464L268 463M324 463L325 464L324 463M352 463L353 464L352 463M360 463L361 464L360 463M413 463L414 464L413 463M86 464L87 465L86 464M100 464L101 465L100 464M163 464L164 465L163 464M187.667 464.333L188.333 464.667L187.667 464.333M242 464L243 465L242 464M265.667 464.333L266.333 464.667L265.667 464.333M326 464L327 465L326 464M350 464L351 465L350 464M400 464L401 465L400 464M166.667 465.333L167.333 465.667L166.667 465.333M184.667 465.333L185.333 465.667L184.667 465.333M245 465L246 466L245 465M262.667 465.333L263.333 465.667L262.667 465.333M328.667 465.333L329.333 465.667L328.667 465.333M347.667 465.333L348.333 465.667L347.667 465.333M170 466L170 467L181 467L170 466M249 466L249 467L259 467L249 466M333 466L333 467L344 467L333 466M400 466L401 467L400 466M399 467L400 468L399 467M410 469L411 470L410 469M396 470L397 471L396 470M395 471L396 472L395 471M409 471L410 472L409 471M393 472L394 473L393 472M392 473L393 474L392 473M389.667 474.333L390.333 474.667L389.667 474.333M407 474L408 475L407 474M387 475L388 476L387 475M406 475L407 476L406 475M384 476L385 477L384 476M405 476L406 477L405 476M383 477L384 478L383 477M404 477L405 478L404 477M403 478L404 479L403 478M384 479L385 480L384 479M400 480L401 481L400 480M385 481L386 482L385 481M397 482L398 483L397 482M394.667 483.333L395.333 483.667L394.667 483.333M221 484L221 485L232 485L221 484M386 484L387 485L386 484M391.667 484.333L392.333 484.667L391.667 484.333M388.667 485.333L389.333 485.667L388.667 485.333z"/>
</svg>
