<?xml version="1.0" standalone="yes"?>
<svg xmlns="http://www.w3.org/2000/svg" width="416" height="406">
<path style="fill:#0d0f0e; stroke:none;" d="M0 0L0 406L416 406L416 0L0 0z"/>
<path style="fill:#67a33f; stroke:none;" d="M292 175L292 176L394 176L394 245C408.668 229.671 405 209.566 405 190C405 184.286 407.12 173.598 401.852 169.742C395.733 165.264 381.297 168 374 168C348.389 168 314.574 161.824 292 175z"/>
<path style="fill:#a36c1d; stroke:none;" d="M302 169L303 170L302 169M300 170L301 171L300 170M298 171L299 172L298 171M296 172L297 173L296 172M294 173L295 174L294 173M292 174L293 175L292 174M405 174L405 200L406 200L405 174M291 175L292 176L291 175z"/>
<path style="fill:#67a33f; stroke:none;" d="M76 178L77 179L76 178z"/>
<path style="fill:#a36c1d; stroke:none;" d="M77 178L78 179L77 178z"/>
<path style="fill:#e2e2e2; stroke:none;" d="M76 179L77 208L77 221L83 228L86 228L85 230C98.0718 232.427 122.817 235.241 129.972 220.999C134.272 212.441 131 195.517 131 186L118 186C116.808 194.069 118.004 202.812 118 211C117.999 213.802 118.69 218.188 116.397 220.322C111.704 224.688 96.0895 222 90 222C90 205.312 95.7174 184.8 76 179z"/>
<path style="fill:#67a33f; stroke:none;" d="M78 179L79 180L78 179z"/>
<path style="fill:#a36c1d; stroke:none;" d="M80 180L81 181L80 180z"/>
<path style="fill:#67a33f; stroke:none;" d="M76 181L77 182L76 181z"/>
<path style="fill:#a36c1d; stroke:none;" d="M82 181L83 182L82 181z"/>
<path style="fill:#67a33f; stroke:none;" d="M83 182L84 183L83 182z"/>
<path style="fill:#a36c1d; stroke:none;" d="M84 182L85 183L84 182z"/>
<path style="fill:#67a33f; stroke:none;" d="M85 183L86 184L85 183z"/>
<path style="fill:#a36c1d; stroke:none;" d="M87 184L88 185L87 184z"/>
<path style="fill:#67a33f; stroke:none;" d="M88 185L89 186L88 185z"/>
<path style="fill:#a36c1d; stroke:none;" d="M89 185L90 186L89 185M130 185L131 186L130 185M141 185L142 186L141 185M185 185L186 186L185 185M187 185L188 186L187 185M205 185L204 228L205 228C205 217.626 200.714 194.298 207 186L205 185z"/>
<path style="fill:#e2e2e2; stroke:none;" d="M9 186L31.9722 211L34 233L35 233L36 230C38.6304 231.465 42.7918 232.321 44.3966 228.813C46.9684 223.192 44.0391 215.831 47.0239 210C51.8195 200.632 62.9258 194.623 69 186L52.2855 187.653L39.8302 198.369L26 187.603L9 186z"/>
<path style="fill:#a36c1d; stroke:none;" d="M25 186L26 187L25 186z"/>
<path style="fill:#67a33f; stroke:none;" d="M53 186L54 187L53 186z"/>
<path style="fill:#a36c1d; stroke:none;" d="M69 186L70 187L69 186z"/>
<path style="fill:#67a33f; stroke:none;" d="M117 186L117 189L118 189L117 186z"/>
<path style="fill:#e2e2e2; stroke:none;" d="M141 186L141 220C141 226.459 140.034 232.119 146 236C145.058 233.712 144.437 233.342 147 233L147 232L143 233L152.397 229.972L154 216C162.64 216 178.241 219.016 185.961 214.972C197.484 208.936 200.024 193.803 187.829 187.028C184.083 184.946 178.14 186 174 186L141 186z"/>
<path style="fill:#67a33f; stroke:none;" d="M188 186L189 187L188 186z"/>
<path style="fill:#e2e2e2; stroke:none;" d="M205 186C205 200.735 202.678 217.776 207 232L216 229L218 216C226.527 216 242.34 219.057 249.91 214.972C261.298 208.828 264.052 193.874 251.826 187.028C248.096 184.939 242.128 186 238 186L205 186z"/>
<path style="fill:#67a33f; stroke:none;" d="M252 186L253 187L252 186z"/>
<path style="fill:#a36c1d; stroke:none;" d="M258 186L263 192L258 186z"/>
<path style="fill:#f3a912; stroke:none;" d="M259 186C263.605 195.869 271.399 196 281 196L282 237C299.35 231.508 294 210.732 294 196C303.723 196 311.328 196.017 316 186L259 186z"/>
<path style="fill:#a36c1d; stroke:none;" d="M316 186L316 188L318 186L316 186M322 186L323 187L322 186z"/>
<path style="fill:#f3a912; stroke:none;" d="M323 186C326.51 197.933 335.166 210.331 341.551 221C343.685 224.567 345.492 230.07 350.104 230.852C353.845 231.486 357.832 230.83 360.363 227.852C369.032 217.648 379.298 198.825 383 186C366.697 186 358.415 201.992 354 217L352 217C349.815 209.557 342.23 191.25 335.61 187.028C332.253 184.887 326.816 186.278 323 186z"/>
<path style="fill:#a36c1d; stroke:none;" d="M325 186L326 187L325 186M336 186L337 187L336 186M369 186L369 188L371 186L369 186M383.333 186.667L383.667 187.333L383.333 186.667M26 187L27 188L26 187M68 187L69 188L68 187M189 187L190 188L189 187M253 187L254 188L253 187M27 188L28 189L27 188z"/>
<path style="fill:#67a33f; stroke:none;" d="M67 188L68 189L67 188z"/>
<path style="fill:#a36c1d; stroke:none;" d="M315 188L316 189L315 188M323 188L324 189L323 188M337 188L338 189L337 188M368.333 188.667L368.667 189.333L368.333 188.667M382 188L383 189L382 188M28 189L29 190L28 189z"/>
<path style="fill:#67a33f; stroke:none;" d="M50 189L51 190L50 189z"/>
<path style="fill:#a36c1d; stroke:none;" d="M66 189L67 190L66 189z"/>
<path style="fill:#67a33f; stroke:none;" d="M190 189L191 190L190 189M254 189L255 190L254 189z"/>
<path style="fill:#a36c1d; stroke:none;" d="M314 189L315 190L314 189M29 190L30 191L29 190M65 190L66 191L65 190z"/>
<path style="fill:#67a33f; stroke:none;" d="M117 190L118 191L117 190M191 190L192 191L191 190M255 190L256 191L255 190z"/>
<path style="fill:#a36c1d; stroke:none;" d="M313 190L314 191L313 190M324 190L325 191L324 190M338 190L339 191L338 190M367 190L368 191L367 190M381 190L382 191L381 190M13 191L14 192L13 191M30 191L31 192L30 191M64 191L65 192L64 191M192 191L193 192L192 191M256 191L257 192L256 191M312 191L313 192L312 191M14 192L15 193L14 192M31 192L32 193L31 192M63 192L64 193L63 192z"/>
<path style="fill:#67a33f; stroke:none;" d="M117 192L117 221L118 221L117 192z"/>
<path style="fill:#a36c1d; stroke:none;" d="M311 192L312 193L311 192M325 192L326 193L325 192M339 192L340 193L339 192M366 192L367 193L366 192M380 192L381 193L380 192M32 193L33 194L32 193z"/>
<path style="fill:#67a33f; stroke:none;" d="M62 193L63 194L62 193M257 193L258 194L257 193z"/>
<path style="fill:#a36c1d; stroke:none;" d="M264 193L265 194L264 193M310 193L311 194L310 193M326.333 193.667L326.667 194.333L326.333 193.667M340.333 193.667L340.667 194.333L340.333 193.667M16 194L17 195L16 194M33 194L34 195L33 194M61 194L62 195L61 194M194 194L195 195L194 194M258 194L259 195L258 194M265 194L266 195L265 194M309 194L310 195L309 194M365 194L366 195L365 194M379 194L380 195L379 194M17 195L18 196L17 195M34 195L35 196L34 195M60 195L61 196L60 195M195 195L196 196L195 195M259 195L260 196L259 195M266.667 195.333L267.333 195.667L266.667 195.333M308 195L309 196L308 195M327.333 195.667L327.667 196.333L327.333 195.667M341.333 195.667L341.667 196.333L341.333 195.667M364.333 195.667L364.667 196.333L364.333 195.667M378.333 195.667L378.667 196.333L378.333 195.667M35 196L36 197L35 196M59 196L60 197L59 196z"/>
<path style="fill:#67a33f; stroke:none;" d="M154 196L154 201L155 201L154 196z"/>
<path style="fill:#0d0f0e; stroke:none;" d="M155 196L155 205C160.078 205 180.839 207.869 182.654 201.856C183.665 198.508 179.607 196.557 176.999 196.148C169.972 195.047 162.113 196 155 196z"/>
<path style="fill:#a36c1d; stroke:none;" d="M180 196L182 198L180 196z"/>
<path style="fill:#67a33f; stroke:none;" d="M181 196L182 197L181 196M218 196L219 197L218 196z"/>
<path style="fill:#0d0f0e; stroke:none;" d="M219 196L219 205C224.087 205 244.536 207.858 246.263 201.856C248.822 192.967 223.782 196 219 196z"/>
<path style="fill:#a36c1d; stroke:none;" d="M280 196L281 197L280 196M294 196C294 207.579 296.697 222.644 291 233C297.835 229.231 296.878 202.858 294 196M36 197L37 198L36 197M58 197L59 198L58 197z"/>
<path style="fill:#67a33f; stroke:none;" d="M196 197L197 198L196 197z"/>
<path style="fill:#a36c1d; stroke:none;" d="M218 197C218.048 210.566 234.732 206 245 206L245 205L219 205L218 197M245 197L246 198L245 197z"/>
<path style="fill:#67a33f; stroke:none;" d="M260 197L261 198L260 197z"/>
<path style="fill:#a36c1d; stroke:none;" d="M328.333 197.667L328.667 198.333L328.333 197.667M342.333 197.667L342.667 198.333L342.333 197.667M363.333 197.667L363.667 198.333L363.333 197.667M377.333 197.667L377.667 198.333L377.333 197.667M37 198L38 199L37 198z"/>
<path style="fill:#67a33f; stroke:none;" d="M41 198L42 199L41 198z"/>
<path style="fill:#a36c1d; stroke:none;" d="M57 198L58 199L57 198z"/>
<path style="fill:#67a33f; stroke:none;" d="M182 198L183 199L182 198z"/>
<path style="fill:#a36c1d; stroke:none;" d="M197 198L198 199L197 198z"/>
<path style="fill:#67a33f; stroke:none;" d="M246 198L247 199L246 198z"/>
<path style="fill:#a36c1d; stroke:none;" d="M261 198L262 199L261 198M280 198L280 205L281 205L280 198M21 199L22 200L21 199M38 199L39 200L38 199z"/>
<path style="fill:#67a33f; stroke:none;" d="M40 199L41 200L40 199z"/>
<path style="fill:#a36c1d; stroke:none;" d="M56 199L57 200L56 199z"/>
<path style="fill:#67a33f; stroke:none;" d="M183 199L184 200L183 199M247 199L248 200L247 199z"/>
<path style="fill:#a36c1d; stroke:none;" d="M329 199L330 200L329 199M343 199L344 200L343 199M362 199L363 200L362 199M376 199L377 200L376 199M22 200L23 201L22 200M55 200L56 201L55 200M247.333 200.667L247.667 201.333L247.333 200.667M54 201L55 202L54 201M154 201L155 202L154 201M197 201L198 202L197 201M330 201L331 202L330 201M344 201L345 202L344 201M361 201L362 202L361 201M375 201L376 202L375 201M53 202L54 203L53 202z"/>
<path style="fill:#67a33f; stroke:none;" d="M154 202L155 203L154 202z"/>
<path style="fill:#a36c1d; stroke:none;" d="M196 202L197 203L196 202M260 202L261 203L260 202M331.333 202.667L331.667 203.333L331.333 202.667M52 203L53 204L52 203M154 203C157.886 208.994 174.369 206 181 206L181 205C172.754 205 161.372 207.1 154 203z"/>
<path style="fill:#67a33f; stroke:none;" d="M182 203L183 204L182 203M195 203L196 204L195 203M246 203L247 204L246 203M259 203L260 204L259 203z"/>
<path style="fill:#a36c1d; stroke:none;" d="M345 203L346 204L345 203M360 203L361 204L360 203M374 203L375 204L374 203M26 204L27 205L26 204M51 204L52 205L51 204M181 204L182 205L181 204M245 204L246 205L245 204M332.333 204.667L332.667 205.333L332.333 204.667M346.333 204.667L346.667 205.333L346.333 204.667M359.333 204.667L359.667 205.333L359.333 204.667M373.333 204.667L373.667 205.333L373.333 204.667M50 205L51 206L50 205z"/>
<path style="fill:#67a33f; stroke:none;" d="M76 205L76 221L77 221L76 205M154 205L155 206L154 205z"/>
<path style="fill:#a36c1d; stroke:none;" d="M194 205L195 206L194 205z"/>
<path style="fill:#67a33f; stroke:none;" d="M218 205L219 206L218 205z"/>
<path style="fill:#a36c1d; stroke:none;" d="M258 205L259 206L258 205M49 206L50 207L49 206z"/>
<path style="fill:#67a33f; stroke:none;" d="M193 206L194 207L193 206z"/>
<path style="fill:#a36c1d; stroke:none;" d="M257 206L258 207L257 206M333 206L334 207L333 206M347 206L348 207L347 206M358.333 206.667L358.667 207.333L358.333 206.667M372.333 206.667L372.667 207.333L372.333 206.667M48 207L49 208L48 207z"/>
<path style="fill:#67a33f; stroke:none;" d="M256 207L257 208L256 207z"/>
<path style="fill:#a36c1d; stroke:none;" d="M47 208L48 209L47 208M280 208L280 214L281 214L280 208M334 208L336 211L334 208M348.333 208.667L348.667 209.333L348.333 208.667M357.333 208.667L357.667 209.333L357.333 208.667M371.333 208.667L371.667 209.333L371.333 208.667M31 209L32 210L31 209M46 209L47 210L46 209M191 209L192 210L191 209M255 209L256 210L255 209z"/>
<path style="fill:#67a33f; stroke:none;" d="M32 210L32 229L33 229L32 210M190 210L191 211L190 210z"/>
<path style="fill:#a36c1d; stroke:none;" d="M254 210L255 211L254 210M349 210L350 211L349 210M356 210L357 211L356 210M370 210L371 211L370 210z"/>
<path style="fill:#67a33f; stroke:none;" d="M253 211L254 212L253 211z"/>
<path style="fill:#a36c1d; stroke:none;" d="M336.333 211.667L336.667 212.333L336.333 211.667M350 212L351 213L350 212M355 212L356 213L355 212M369 212L370 213L369 212M188 213L189 214L188 213M252 213L253 214L252 213M368.333 213.667L368.667 214.333L368.333 213.667z"/>
<path style="fill:#67a33f; stroke:none;" d="M187 214L188 215L187 214z"/>
<path style="fill:#a36c1d; stroke:none;" d="M251 214L252 215L251 214M337 214L338 215L337 214M351 214L352 215L351 214M354 214L355 215L354 214z"/>
<path style="fill:#67a33f; stroke:none;" d="M186 215L187 216L186 215M250 215L251 216L250 215M45 216C45 221.441 45.571 237.178 36 230L35 233L34 233L34 230L33 230C32.7652 232.975 31.6013 234.588 35 235L35 236L32 237C43.4174 237.079 49.2139 226.042 45 216z"/>
<path style="fill:#a36c1d; stroke:none;" d="M154 216L154 231L155 231L154 216M218 216L218 231L219 231L218 216M352.667 216.333L353.333 216.667L352.667 216.333M367 216L368 217L367 216M339.333 217.667L339.667 218.333L339.333 217.667M366 217L367 218L366 217M340 219L341 220L340 219M365 219L366 220L365 219M341.333 220.667L341.667 221.333L341.333 220.667M364.333 220.667L364.667 221.333L364.333 220.667z"/>
<path style="fill:#67a33f; stroke:none;" d="M77 221L79 223L77 221M90 221L90 222L112 222L90 221M113 221L113 222L117 222L113 221z"/>
<path style="fill:#a36c1d; stroke:none;" d="M130 221L131 222L130 221M77 222L78 223L77 222M129 222L130 223L129 222M342.333 222.667L342.667 223.333L342.333 222.667M363.333 222.667L363.667 223.333L363.333 222.667z"/>
<path style="fill:#67a33f; stroke:none;" d="M79 223L80 224L79 223z"/>
<path style="fill:#a36c1d; stroke:none;" d="M128 223L129 224L128 223M127 224L128 225L127 224z"/>
<path style="fill:#67a33f; stroke:none;" d="M205 224L205 238L218 230L207 232L205 224z"/>
<path style="fill:#a36c1d; stroke:none;" d="M343.333 224.667L343.667 225.333L343.333 224.667M362.333 224.667L362.667 225.333L362.333 224.667z"/>
<path style="fill:#67a33f; stroke:none;" d="M81 225L82 226L81 225z"/>
<path style="fill:#a36c1d; stroke:none;" d="M126 225L127 226L126 225z"/>
<path style="fill:#67a33f; stroke:none;" d="M82.6667 226.333L83.3333 226.667L82.6667 226.333z"/>
<path style="fill:#a36c1d; stroke:none;" d="M125 226L126 227L125 226M281 226L281 239L284 238L281 226M344 226L346 231L347 231L344 226M361.333 226.667L361.667 227.333L361.333 226.667M405.333 226.667L405.667 227.333L405.333 226.667M124 227L125 228L124 227z"/>
<path style="fill:#67a33f; stroke:none;" d="M84.6667 228.333L85.3333 228.667L84.6667 228.333M87 228L88 229L87 228M122 228L120 231L122 228z"/>
<path style="fill:#a36c1d; stroke:none;" d="M123 228L124 229L123 228z"/>
<path style="fill:#67a33f; stroke:none;" d="M152 228L153 229L152 228M216.667 228.333L217.333 228.667L216.667 228.333z"/>
<path style="fill:#a36c1d; stroke:none;" d="M360 228L358 231L360 228M32 229L32 234L33 234L32 229M122 229L123 230L122 229z"/>
<path style="fill:#67a33f; stroke:none;" d="M86.6667 230.333L87.3333 230.667L86.6667 230.333z"/>
<path style="fill:#a36c1d; stroke:none;" d="M121 230L122 231L121 230z"/>
<path style="fill:#67a33f; stroke:none;" d="M153 230L143 233L147 232L147 233L144 233L146 236L153 230z"/>
<path style="fill:#a36c1d; stroke:none;" d="M45 231L46 232L45 231M43 232L44 233L43 232z"/>
<path style="fill:#67a33f; stroke:none;" d="M141 232L141 238L145 237L145 235L141 232z"/>
<path style="fill:#a36c1d; stroke:none;" d="M204 232L205 233L204 232z"/>
<path style="fill:#e2e2e2; stroke:none;" d="M212 232L213 233L212 232M36 235L39 234L36 235z"/>
<path style="fill:#a36c1d; stroke:none;" d="M41 233L42 234L41 233M150 233L151 234L150 233z"/>
<path style="fill:#e2e2e2; stroke:none;" d="M206 233L206 234L210 234L210 233L206 233z"/>
<path style="fill:#a36c1d; stroke:none;" d="M214 233L215 234L214 233M289.667 233.333L290.333 233.667L289.667 233.333z"/>
<path style="fill:#e2e2e2; stroke:none;" d="M147 234L148 235L147 234z"/>
<path style="fill:#a36c1d; stroke:none;" d="M148 234L149 235L148 234M212 234L213 235L212 234M287.667 234.333L288.333 234.667L287.667 234.333M32 235L33 236L32 235z"/>
<path style="fill:#e2e2e2; stroke:none;" d="M33.6667 235.333L34.3333 235.667L33.6667 235.333z"/>
<path style="fill:#a36c1d; stroke:none;" d="M38 235L39 236L38 235M204 235L205 236L204 235M286 235L287 236L286 235M400 235L401 236L400 235M36 236L37 237L36 236M145 236L146 237L145 236M208.667 236.333L209.333 236.667L208.667 236.333M284.667 236.333L285.333 236.667L284.667 236.333M32.3333 237.667L32.6667 238.333L32.3333 237.667M34 237L35 238L34 237M143 237L144 238L143 237M207 237L208 238L207 237M141 238L142 239L141 238M205 238L206 239L205 238M395 243L396 244L395 243z"/>
</svg>
